<svg version="1.1" viewBox="0.0 0.0 963.7217847769028 123.28608923884515" fill="none" stroke="none" stroke-linecap="square" stroke-miterlimit="10" xmlns:xlink="http://www.w3.org/1999/xlink" xmlns="http://www.w3.org/2000/svg"><clipPath id="p.0"><path d="m0 0l963.7218 0l0 123.28609l-963.7218 0l0 -123.28609z" clip-rule="nonzero"/></clipPath><g clip-path="url(#p.0)"><path fill="#000000" fill-opacity="0.0" d="m0 0l963.7218 0l0 123.28609l-963.7218 0z" fill-rule="evenodd"/><g filter="url(#shadowFilter-p.1)"><use xlink:href="#p.1" transform="matrix(1.0 0.0 0.0 1.0 5.3460392188525265 2.7239429543963256)"/></g><defs><filter id="shadowFilter-p.1" filterUnits="userSpaceOnUse"><feGaussianBlur in="SourceAlpha" stdDeviation="2.0" result="blur"/><feComponentTransfer in="blur" color-interpolation-filters="sRGB"><feFuncR type="linear" slope="0" intercept="0.2627451"/><feFuncG type="linear" slope="0" intercept="0.2627451"/><feFuncB type="linear" slope="0" intercept="0.2627451"/><feFuncA type="linear" slope="0.67" intercept="0"/></feComponentTransfer></filter></defs><g id="p.1"><path fill="#000000" fill-opacity="0.0" d="m0.002624672 0l963.71655 0l0 108.0l-963.71655 0z" fill-rule="evenodd"/><path fill="#f3f3f3" d="m121.27783 90.03562l-0.890625 4.828125q-7.390625 -0.34375 -9.96875 -0.34375q-4.265625 0 -11.546875 1.34375l0.453125 -4.59375q3.25 -0.890625 4.703125 -2.5625q1.453125 -1.6875 1.5625 -4.71875l0.671875 -22.171875q0.234375 -5.484375 -2.296875 -8.5625q-2.515625 -3.09375 -7.0 -3.09375q-2.796875 0 -6.890625 1.796875q-4.078125 1.796875 -7.328125 4.375q-0.328125 12.546875 -0.328125 27.21875q0 3.46875 0.890625 4.875q0.890625 1.390625 3.140625 1.390625l3.921875 -0.21875l0.21875 0.4375l-1.015625 4.828125q-7.71875 -0.34375 -10.1875 -0.34375q-3.921875 0 -11.09375 0.21875l0.671875 -4.59375q3.25 -0.328125 4.53125 -1.671875q1.296875 -1.34375 1.296875 -4.484375l0 -53.203125q-2.796875 -1.890625 -7.453125 -2.453125q-4.640625 -0.5625 -17.625 -0.78125q-0.671875 6.71875 -1.234375 23.75q-0.5625 17.015625 -0.5625 30.671875q0 4.140625 1.453125 5.890625q1.453125 1.734375 4.921875 1.734375q3.484375 0 6.171875 -0.34375l0.328125 0.453125l-1.0 5.15625l-3.703125 -0.125l-12.765625 -0.21875q-5.265625 0 -15.34375 0.453125l0.890625 -4.828125q5.609375 -0.4375 7.734375 -1.390625q2.125 -0.953125 2.796875 -3.46875q0.671875 -2.53125 0.671875 -8.90625l0 -48.828125q-9.625 0.4375 -12.984375 1.234375q-3.359375 0.78125 -4.59375 3.25q-1.234375 2.453125 -2.25 9.625l-5.25 0.4375q1.34375 -10.640625 1.671875 -19.375l1.015625 -0.890625l9.28125 1.234375l37.1875 0l10.421875 -1.015625l-0.453125 -7.28125l0.671875 -1.109375q2.921875 -0.5625 6.0 -1.28125q3.078125 -0.734375 4.078125 -0.96875l0.671875 1.46875q-0.78125 1.21875 -1.515625 11.984375q-0.71875 10.75 -1.171875 26.421875q12.765625 -8.734375 16.8125 -8.734375q7.265625 0 11.296875 3.8125q4.046875 3.796875 4.046875 10.640625q0 2.234375 -0.796875 10.296875q-1.0 13.109375 -1.0 16.25q0 3.234375 0.890625 4.75q0.90625 1.515625 3.03125 1.515625l3.921875 -0.21875l0.21875 0.4375zm31.12999 5.828125q-6.9375 0 -12.3125 -3.078125q-5.375 -3.078125 -8.296875 -8.734375q-2.90625 -5.65625 -2.90625 -12.9375q0 -7.5 3.40625 -14.109375q3.421875 -6.609375 9.125 -10.53125q5.71875 -3.921875 12.21875 -3.921875q8.171875 0 12.421875 4.140625q4.265625 4.140625 4.265625 12.09375q0 3.25 -0.671875 5.5l-1.453125 1.34375l-30.90625 0q-0.125 10.859375 4.296875 16.75q4.4375 5.875 12.390625 5.875q6.265625 0 13.65625 -3.484375l0.671875 0.234375l1.234375 3.25q-4.03125 2.90625 -8.90625 5.265625q-4.875 2.34375 -8.234375 2.34375zm5.609375 -35.390625q1.671875 -0.21875 2.234375 -0.78125q0.5625 -0.5625 0.5625 -2.25q0 -4.46875 -2.40625 -6.8125q-2.40625 -2.359375 -6.890625 -2.359375q-5.265625 0 -9.015625 3.578125q-3.75 3.578125 -4.765625 9.625l20.28125 -1.0zm77.16449 35.390625q-10.078125 0 -17.703125 -4.25q-7.609375 -4.265625 -11.703125 -12.046875q-4.078125 -7.78125 -4.078125 -18.3125q0 -11.203125 5.03125 -20.21875q5.046875 -9.015625 13.953125 -14.109375q8.90625 -5.09375 20.09375 -5.09375q4.15625 0 8.46875 0.625q4.3125 0.609375 7.2656403 1.234375q2.96875 0.609375 3.765625 0.828125l0.4375 0.671875q-0.21875 0.671875 -0.734375 3.25q-0.5 2.578125 -1.109375 6.71875q-0.609375 4.140625 -0.953125 8.734375l-5.3750153 0.453125q0.109375 -0.5625 0.21875 -2.078125q0.109375 -1.515625 0.109375 -3.40625q0 -10.421875 -16.453125 -10.421875q-7.390625 0 -13.0 3.59375q-5.59375 3.578125 -8.625 10.125q-3.015625 6.546875 -3.015625 15.40625q0 9.734375 3.1875 17.125q3.1875 7.390625 9.015625 11.484375q5.828125 4.09375 13.4375 4.09375q7.625 0 12.265625 -4.3125q4.65625 -4.3125 6.7812653 -13.390625l5.375 -0.453125q-0.34375 1.6875 -1.46875 7.453125q-1.109375 5.765625 -1.5625 10.8125l-0.671875 1.0q0 0.109375 -3.4218903 1.296875q-3.40625 1.171875 -8.5 2.171875q-5.09375 1.015625 -11.03125 1.015625zm68.76802 0q-10.078125 0 -17.703125 -4.25q-7.609375 -4.265625 -11.703125 -12.046875q-4.078125 -7.78125 -4.078125 -18.3125q0 -11.203125 5.03125 -20.21875q5.046875 -9.015625 13.953125 -14.109375q8.90625 -5.09375 20.09375 -5.09375q4.15625 0 8.46875 0.625q4.3125 0.609375 7.265625 1.234375q2.96875 0.609375 3.765625 0.828125l0.4375 0.671875q-0.21875 0.671875 -0.734375 3.25q-0.5 2.578125 -1.109375 6.71875q-0.609375 4.140625 -0.953125 8.734375l-5.375 0.453125q0.109375 -0.5625 0.21875 -2.078125q0.109375 -1.515625 0.109375 -3.40625q0 -10.421875 -16.453125 -10.421875q-7.390625 0 -13.0 3.59375q-5.59375 3.578125 -8.625 10.125q-3.015625 6.546875 -3.015625 15.40625q0 9.734375 3.1875 17.125q3.1875 7.390625 9.015625 11.484375q5.828125 4.09375 13.4375 4.09375q7.625 0 12.265625 -4.3125q4.65625 -4.3125 6.78125 -13.390625l5.375 -0.453125q-0.34375 1.6875 -1.46875 7.453125q-1.109375 5.765625 -1.5625 10.8125l-0.671875 1.0q0 0.109375 -3.421875 1.296875q-3.40625 1.171875 -8.5 2.171875q-5.09375 1.015625 -11.03125 1.015625zm39.987 -5.59375q4.921875 -0.90625 6.484375 -2.640625q1.578125 -1.734375 1.578125 -6.546875l0.109375 -47.046875q0 -3.578125 -0.84375 -4.8125q-0.828125 -1.234375 -3.296875 -1.234375q-1.125 0 -2.25 0.125q-1.109375 0.109375 -1.5625 0.109375l-0.21875 -0.453125l0.78125 -4.9375q1.34375 0.125 5.03125 0.234375q3.703125 0.109375 7.40625 0.109375q3.46875 0 7.890625 -0.171875q4.421875 -0.171875 6.21875 -0.28125q11.640625 0 17.796875 5.15625q6.171875 5.15625 6.171875 14.78125q0 6.28125 -3.640625 11.9375q-3.640625 5.65625 -9.578125 9.125q-5.9375 3.46875 -12.4375 3.46875l-9.40625 0l-0.21875 10.96875q0 5.390625 0.328125 7.6875q0.34375 2.28125 1.296875 3.015625q0.953125 0.734375 3.296875 0.734375q1.90625 0 3.640625 -0.109375q1.734375 -0.125 2.40625 -0.234375l0.234375 0.453125l-1.015625 5.15625q-1.125 -0.125 -4.09375 -0.234375q-2.96875 -0.109375 -6.203125 -0.109375q-4.484375 0 -10.484375 0.328125q-5.984375 0.34375 -6.203125 0.5625l0.78125 -5.140625zm28.328125 -28.0q6.71875 -1.125 10.140625 -5.484375q3.421875 -4.375 3.421875 -12.0q0 -8.625 -5.109375 -12.59375q-5.09375 -3.96875 -15.953125 -3.96875q-2.015625 0 -2.46875 0.21875q-0.4375 0.21875 -0.5625 1.34375q-1.0 14.21875 -1.34375 30.796875l11.875 1.6875zm85.684845 33.59375q-10.078125 0 -17.703125 -4.25q-7.609375 -4.265625 -11.703125 -12.046875q-4.078125 -7.78125 -4.078125 -18.3125q0 -11.203125 5.03125 -20.21875q5.046875 -9.015625 13.953125 -14.109375q8.90625 -5.09375 20.09375 -5.09375q4.15625 0 8.46875 0.625q4.3125 0.609375 7.265625 1.234375q2.96875 0.609375 3.765625 0.828125l0.4375 0.671875q-0.21875 0.671875 -0.734375 3.25q-0.5 2.578125 -1.109375 6.71875q-0.609375 4.140625 -0.953125 8.734375l-5.375 0.453125q0.109375 -0.5625 0.21875 -2.078125q0.109375 -1.515625 0.109375 -3.40625q0 -10.421875 -16.453125 -10.421875q-7.390625 0 -13.0 3.59375q-5.59375 3.578125 -8.625 10.125q-3.015625 6.546875 -3.015625 15.40625q0 9.734375 3.1875 17.125q3.1875 7.390625 9.015625 11.484375q5.828125 4.09375 13.4375 4.09375q7.625 0 12.265625 -4.3125q4.65625 -4.3125 6.78125 -13.390625l5.375 -0.453125q-0.34375 1.6875 -1.46875 7.453125q-1.109375 5.765625 -1.5625 10.8125l-0.671875 1.0q0 0.109375 -3.421875 1.296875q-3.40625 1.171875 -8.5 2.171875q-5.09375 1.015625 -11.03125 1.015625zm55.668854 0q-6.390625 0 -11.328125 -3.125q-4.921875 -3.140625 -7.671875 -8.796875q-2.734375 -5.65625 -2.734375 -12.9375q0 -7.84375 3.40625 -14.390625q3.421875 -6.5625 9.359375 -10.3125q5.9375 -3.75 13.21875 -3.75q6.265625 0 11.25 3.140625q4.984375 3.125 7.734375 8.78125q2.75 5.65625 2.75 12.9375q0 7.84375 -3.421875 14.40625q-3.421875 6.546875 -9.359375 10.296875q-5.921875 3.75 -13.203125 3.75zm3.125 -5.484375q6.28125 0 9.96875 -5.09375q3.703125 -5.109375 3.703125 -13.84375q0 -6.609375 -2.015625 -11.8125q-2.015625 -5.203125 -5.65625 -8.109375q-3.640625 -2.921875 -8.234375 -2.921875q-6.265625 0 -9.96875 5.15625q-3.703125 5.15625 -3.703125 14.0q0 6.609375 2.015625 11.765625q2.03125 5.140625 5.609375 8.0q3.578125 2.859375 8.28125 2.859375zm63.510376 0.890625q3.359375 -0.890625 4.8125 -2.625q1.453125 -1.734375 1.453125 -4.65625l0.453125 -22.171875q0 -5.59375 -2.40625 -8.625q-2.40625 -3.03125 -6.890625 -3.03125q-3.578125 0 -7.28125 1.859375q-3.6875 1.84375 -6.5 3.96875q-1.0 23.1875 -1.0 27.5625q0 3.46875 0.890625 4.875q0.90625 1.390625 3.140625 1.390625q1.234375 0 2.34375 -0.109375q1.125 -0.109375 1.578125 -0.109375l0.21875 0.4375l-1.0 4.828125q-1.015625 -0.125 -3.9375 -0.234375q-2.90625 -0.109375 -6.265625 -0.109375q-2.90625 0 -6.4375 0.28125q-3.53125 0.28125 -4.640625 0.390625l0.5625 -4.59375q3.234375 -0.5625 4.578125 -2.015625q1.34375 -1.453125 1.34375 -4.59375l0 -27.328125q0 -3.796875 -1.234375 -5.3125q-1.21875 -1.515625 -4.25 -1.515625l-1.234375 0l-0.328125 -0.453125l0.328125 -3.6875q4.828125 -0.78125 9.578125 -1.84375q4.765625 -1.078125 6.109375 -1.40625l0.671875 0.890625q-0.21875 0.671875 -0.671875 2.859375q-0.453125 2.1875 -0.5625 4.53125l0.21875 0.34375q12.78125 -8.515625 16.46875 -8.515625q7.0625 0 11.203125 3.921875q4.140625 3.921875 4.140625 10.53125q0 1.109375 -0.671875 10.296875q-0.890625 11.65625 -0.890625 16.25q0 3.234375 0.890625 4.75q0.890625 1.515625 3.03125 1.515625q1.21875 0 2.34375 -0.109375q1.125 -0.109375 1.578125 -0.109375l0.21875 0.4375l-0.890625 4.828125q-1.015625 -0.125 -3.8125 -0.234375q-2.796875 -0.109375 -6.15625 -0.109375q-2.921875 0 -6.671875 0.5625q-3.75 0.5625 -4.875 0.78125l0.453125 -4.59375zm61.375977 0q3.359375 -0.890625 4.8125 -2.625q1.453125 -1.734375 1.453125 -4.65625l0.453125 -22.171875q0 -5.59375 -2.40625 -8.625q-2.40625 -3.03125 -6.890625 -3.03125q-3.578125 0 -7.28125 1.859375q-3.6875 1.84375 -6.5 3.96875q-1.0 23.1875 -1.0 27.5625q0 3.46875 0.890625 4.875q0.90625 1.390625 3.140625 1.390625q1.234375 0 2.34375 -0.109375q1.125 -0.109375 1.578125 -0.109375l0.21875 0.4375l-1.0 4.828125q-1.015625 -0.125 -3.9375 -0.234375q-2.90625 -0.109375 -6.265625 -0.109375q-2.90625 0 -6.4375 0.28125q-3.53125 0.28125 -4.640625 0.390625l0.5625 -4.59375q3.234375 -0.5625 4.578125 -2.015625q1.34375 -1.453125 1.34375 -4.59375l0 -27.328125q0 -3.796875 -1.234375 -5.3125q-1.21875 -1.515625 -4.25 -1.515625l-1.234375 0l-0.328125 -0.453125l0.328125 -3.6875q4.828125 -0.78125 9.578125 -1.84375q4.765625 -1.078125 6.109375 -1.40625l0.671875 0.890625q-0.21875 0.671875 -0.671875 2.859375q-0.453125 2.1875 -0.5625 4.53125l0.21875 0.34375q12.78125 -8.515625 16.46875 -8.515625q7.0625 0 11.203125 3.921875q4.140625 3.921875 4.140625 10.53125q0 1.109375 -0.671875 10.296875q-0.890625 11.65625 -0.890625 16.25q0 3.234375 0.890625 4.75q0.890625 1.515625 3.03125 1.515625q1.21875 0 2.34375 -0.109375q1.125 -0.109375 1.578125 -0.109375l0.21875 0.4375l-0.890625 4.828125q-1.015625 -0.125 -3.8125 -0.234375q-2.796875 -0.109375 -6.15625 -0.109375q-2.921875 0 -6.671875 0.5625q-3.75 0.5625 -4.875 0.78125l0.453125 -4.59375zm52.29785 4.59375q-6.9375 0 -12.3125 -3.078125q-5.375 -3.078125 -8.296875 -8.734375q-2.90625 -5.65625 -2.90625 -12.9375q0 -7.5 3.40625 -14.109375q3.421875 -6.609375 9.125 -10.53125q5.71875 -3.921875 12.21875 -3.921875q8.171875 0 12.421875 4.140625q4.265625 4.140625 4.265625 12.09375q0 3.25 -0.671875 5.5l-1.453125 1.34375l-30.90625 0q-0.125 10.859375 4.296875 16.75q4.4375 5.875 12.390625 5.875q6.265625 0 13.65625 -3.484375l0.671875 0.234375l1.234375 3.25q-4.03125 2.90625 -8.90625 5.265625q-4.875 2.34375 -8.234375 2.34375zm5.609375 -35.390625q1.671875 -0.21875 2.234375 -0.78125q0.5625 -0.5625 0.5625 -2.25q0 -4.46875 -2.40625 -6.8125q-2.40625 -2.359375 -6.890625 -2.359375q-5.265625 0 -9.015625 3.578125q-3.75 3.578125 -4.765625 9.625l20.28125 -1.0zm44.457275 35.390625q-10.640625 0 -17.03125 -6.71875q-6.375 -6.71875 -6.375 -18.03125q0 -7.953125 3.40625 -14.5q3.421875 -6.5625 9.296875 -10.3125q5.890625 -3.75 13.171875 -3.75q3.140625 0 6.046875 0.453125q2.90625 0.4375 4.75 0.953125q1.859375 0.5 2.3125 0.71875l0.328125 0.78125q-0.109375 0.5625 -0.625 2.640625q-0.5 2.0625 -1.0625 5.484375q-0.546875 3.421875 -0.671875 7.34375l-4.578125 0.328125l0 -3.46875q0 -4.140625 -2.53125 -6.65625q-2.515625 -2.53125 -6.65625 -2.53125q-6.828125 0 -10.53125 4.875q-3.703125 4.875 -3.703125 13.828125q0 9.75 4.09375 15.40625q4.09375 5.65625 11.140625 5.65625q2.8125 0 5.609375 -0.84375q2.796875 -0.84375 4.703125 -1.671875q1.90625 -0.84375 2.34375 -1.1875l0.671875 0.234375l1.234375 3.46875q-0.78125 0.5625 -3.421875 2.359375q-2.625 1.78125 -6.046875 3.46875q-3.40625 1.671875 -5.875 1.671875zm43.1286 0q-7.625 0 -10.765625 -3.078125q-3.125 -3.078125 -3.125 -10.46875l0 -27.5625q0 -3.015625 -1.34375 -4.25q-1.34375 -1.234375 -5.046875 -1.34375l-0.4375 -0.671875l0.546875 -3.359375q3.25 -1.5625 6.328125 -3.859375q3.078125 -2.296875 5.03125 -4.03125q1.96875 -1.75 2.53125 -2.296875l2.25 0.890625q-0.125 0.5625 -0.34375 2.6875q-0.21875 2.125 -0.5625 5.71875l16.46875 -0.34375l0.328125 0.34375l-1.0 5.921875l-16.234375 -0.328125q-0.796875 12.3125 -0.796875 28.0q0 5.71875 1.953125 8.078125q1.96875 2.34375 6.78125 2.34375q1.6875 0 3.359375 -0.453125q1.6875 -0.453125 2.796875 -0.953125q1.125 -0.5 1.46875 -0.609375l1.125 2.90625q-0.671875 0.5625 -2.859375 2.125q-2.1875 1.5625 -4.71875 3.078125q-2.515625 1.515625 -3.734375 1.515625zm19.256897 -4.59375q3.359375 -0.890625 4.8125 -2.625q1.453125 -1.734375 1.453125 -4.65625l0 -28.4375q0 -6.0625 -4.140625 -6.0625q-0.78125 0 -1.6875 0.171875q-0.890625 0.171875 -1.109375 0.28125l0.453125 -4.140625q4.703125 -0.671875 9.6875 -1.78125q4.984375 -1.125 6.4375 -1.46875l0.5625 1.34375q-1.015625 2.359375 -1.796875 14.40625q-0.78125 12.03125 -0.78125 25.25q0 3.234375 0.890625 4.75q0.90625 1.515625 3.03125 1.515625q1.234375 0 2.34375 -0.109375q1.125 -0.109375 1.578125 -0.109375l0.21875 0.4375l-0.890625 4.828125q-1.015625 -0.125 -3.8125 -0.234375q-2.796875 -0.109375 -6.15625 -0.109375q-2.921875 0 -6.671875 0.5625q-3.75 0.5625 -4.875 0.78125l0.453125 -4.59375zm9.40625 -61.9375q-2.578125 0 -4.046875 -1.671875q-1.453125 -1.6875 -1.453125 -4.03125q0 -2.6875 1.90625 -4.640625q1.90625 -1.96875 4.703125 -1.96875q2.578125 0 4.03125 1.6875q1.46875 1.671875 1.46875 4.015625q0 2.6875 -1.90625 4.65625q-1.90625 1.953125 -4.703125 1.953125zm42.56836 66.53125q-6.390625 0 -11.328125 -3.125q-4.921875 -3.140625 -7.671875 -8.796875q-2.734375 -5.65625 -2.734375 -12.9375q0 -7.84375 3.40625 -14.390625q3.421875 -6.5625 9.359375 -10.3125q5.9375 -3.75 13.21875 -3.75q6.265625 0 11.25 3.140625q4.984375 3.125 7.734375 8.78125q2.75 5.65625 2.75 12.9375q0 7.84375 -3.421875 14.40625q-3.421875 6.546875 -9.359375 10.296875q-5.921875 3.75 -13.203125 3.75zm3.125 -5.484375q6.28125 0 9.96875 -5.09375q3.703125 -5.109375 3.703125 -13.84375q0 -6.609375 -2.015625 -11.8125q-2.015625 -5.203125 -5.65625 -8.109375q-3.640625 -2.921875 -8.234375 -2.921875q-6.265625 0 -9.96875 5.15625q-3.703125 5.15625 -3.703125 14.0q0 6.609375 2.015625 11.765625q2.03125 5.140625 5.609375 8.0q3.578125 2.859375 8.28125 2.859375zm63.510376 0.890625q3.359375 -0.890625 4.8125 -2.625q1.453125 -1.734375 1.453125 -4.65625l0.453125 -22.171875q0 -5.59375 -2.40625 -8.625q-2.40625 -3.03125 -6.890625 -3.03125q-3.578125 0 -7.28125 1.859375q-3.6875 1.84375 -6.5 3.96875q-1.0 23.1875 -1.0 27.5625q0 3.46875 0.890625 4.875q0.90625 1.390625 3.140625 1.390625q1.234375 0 2.34375 -0.109375q1.125 -0.109375 1.578125 -0.109375l0.21875 0.4375l-1.0 4.828125q-1.015625 -0.125 -3.9375 -0.234375q-2.90625 -0.109375 -6.265625 -0.109375q-2.90625 0 -6.4375 0.28125q-3.53125 0.28125 -4.640625 0.390625l0.5625 -4.59375q3.234375 -0.5625 4.578125 -2.015625q1.34375 -1.453125 1.34375 -4.59375l0 -27.328125q0 -3.796875 -1.234375 -5.3125q-1.21875 -1.515625 -4.25 -1.515625l-1.234375 0l-0.328125 -0.453125l0.328125 -3.6875q4.828125 -0.78125 9.578125 -1.84375q4.765625 -1.078125 6.109375 -1.40625l0.671875 0.890625q-0.21875 0.671875 -0.671875 2.859375q-0.453125 2.1875 -0.5625 4.53125l0.21875 0.34375q12.78125 -8.515625 16.46875 -8.515625q7.0625 0 11.203125 3.921875q4.140625 3.921875 4.140625 10.53125q0 1.109375 -0.671875 10.296875q-0.890625 11.65625 -0.890625 16.25q0 3.234375 0.890625 4.75q0.890625 1.515625 3.03125 1.515625q1.21875 0 2.34375 -0.109375q1.125 -0.109375 1.578125 -0.109375l0.21875 0.4375l-0.890625 4.828125q-1.015625 -0.125 -3.8125 -0.234375q-2.796875 -0.109375 -6.15625 -0.109375q-2.921875 0 -6.671875 0.5625q-3.75 0.5625 -4.875 0.78125l0.453125 -4.59375z" fill-rule="nonzero"/></g><g filter="url(#shadowFilter-p.2)"><use xlink:href="#p.2" transform="matrix(1.0 0.0 0.0 1.0 -0.20905696438366347 1.9890437889599737)"/></g><defs><filter id="shadowFilter-p.2" filterUnits="userSpaceOnUse"><feGaussianBlur in="SourceAlpha" stdDeviation="1.0" result="blur"/><feComponentTransfer in="blur" color-interpolation-filters="sRGB"><feFuncR type="linear" slope="0" intercept="0.2627451"/><feFuncG type="linear" slope="0" intercept="0.2627451"/><feFuncB type="linear" slope="0" intercept="0.2627451"/><feFuncA type="linear" slope="0.91" intercept="0"/></feComponentTransfer></filter></defs><g id="p.2"><path fill="#000000" fill-opacity="0.0" d="m47.24672 102.76903l881.0079 1.1653519" fill-rule="evenodd"/><path stroke="#f3f3f3" stroke-width="1.0" stroke-linejoin="round" stroke-linecap="butt" d="m47.24672 102.76903l881.0079 1.1653519" fill-rule="evenodd"/></g></g></svg>