<svg version="1.1" viewBox="0.0 0.0 225.78477690288713 100.0" fill="none" stroke="none" stroke-linecap="square" stroke-miterlimit="10" xmlns:xlink="http://www.w3.org/1999/xlink" xmlns="http://www.w3.org/2000/svg"><clipPath id="p.0"><path d="m0 0l225.78477 0l0 100.0l-225.78477 0l0 -100.0z" clip-rule="nonzero"/></clipPath><g clip-path="url(#p.0)"><path fill="#000000" fill-opacity="0.0" d="m0 0l225.78477 0l0 100.0l-225.78477 0z" fill-rule="evenodd"/><g filter="url(#shadowFilter-p.1)"><use xlink:href="#p.1" transform="matrix(1.0 0.0 0.0 1.0 -6.251925571071194 6.474058296423885)"/></g><defs><filter id="shadowFilter-p.1" filterUnits="userSpaceOnUse"><feGaussianBlur in="SourceAlpha" stdDeviation="2.0" result="blur"/><feComponentTransfer in="blur" color-interpolation-filters="sRGB"><feFuncR type="linear" slope="0" intercept="0.2627451"/><feFuncG type="linear" slope="0" intercept="0.2627451"/><feFuncB type="linear" slope="0" intercept="0.2627451"/><feFuncA type="linear" slope="0.5" intercept="0"/></feComponentTransfer></filter></defs><g id="p.1"><defs><radialGradient id="p.2" gradientUnits="userSpaceOnUse" gradientTransform="matrix(10.338859673917398 0.0 0.0 10.338859673917398 0.0 0.0)" spreadMethod="pad" cx="10.9830771496771" cy="3.8073008869250375" fx="10.9830771496771" fy="3.8073008869250375" r="10.338859558105469"><stop offset="0.0" stop-color="#6d9eeb"/><stop offset="1.0" stop-color="#113d8a"/></radialGradient></defs><path fill="url(#p.2)" d="m8.828084 25.085077l0 0c0 -3.9428997 3.196351 -7.13925 7.1392508 -7.13925l195.17032 0c1.8934479 0 3.7093506 0.75216866 5.048218 2.0910378c1.3388672 1.3388691 2.091034 3.1547642 2.091034 5.048212l0 28.556147c0 3.9428978 -3.19635 7.139248 -7.1392517 7.139248l-195.17032 0l0 0c-3.9428997 0 -7.1392508 -3.19635 -7.1392508 -7.139248z" fill-rule="evenodd"/><path stroke="#073763" stroke-width="1.0" stroke-linejoin="round" stroke-linecap="butt" d="m8.828084 25.085077l0 0c0 -3.9428997 3.196351 -7.13925 7.1392508 -7.13925l195.17032 0c1.8934479 0 3.7093506 0.75216866 5.048218 2.0910378c1.3388672 1.3388691 2.091034 3.1547642 2.091034 5.048212l0 28.556147c0 3.9428978 -3.19635 7.139248 -7.1392517 7.139248l-195.17032 0l0 0c-3.9428997 0 -7.1392508 -3.19635 -7.1392508 -7.139248z" fill-rule="evenodd"/><path fill="#f3f3f3" d="m69.30822 52.532524l0.140625 -1.40625q1.84375 -0.140625 2.515625 -0.421875q0.6875 -0.296875 0.6875 -0.9375q0 -0.734375 -0.3125 -1.734375l-1.1875 -3.921875q-0.875 -0.046875 -3.75 -0.046875q-1.734375 0 -3.921875 0.296875l-1.328125 3.75q-0.328125 0.96875 -0.328125 1.390625q0 0.796875 0.5 1.140625q0.5 0.34375 1.65625 0.34375l2.046875 0l0.078125 0.140625l-0.21875 1.546875q-0.4375 -0.03125 -1.984375 -0.140625q-1.546875 -0.109375 -3.015625 -0.109375q-1.328125 0 -2.46875 0.03125q-1.140625 0.046875 -1.5 0.078125l0.296875 -1.6875q1.0 -0.109375 1.609375 -0.703125q0.625 -0.59375 1.203125 -2.078125l7.015625 -18.390625l2.265625 -0.609375l0.28125 0q0.21875 0.859375 1.09375 4.0q0.890625 3.125 2.171875 7.40625q1.28125 4.28125 2.46875 7.890625q0.421875 1.328125 1.140625 1.875q0.734375 0.53125 2.3125 0.671875l0.078125 0.140625l-0.265625 1.484375q-0.421875 0 -1.5625 -0.0625q-1.125 -0.046875 -2.25 -0.046875q-1.71875 0 -3.328125 0.140625q-1.59375 0.140625 -2.03125 0.21875l-0.109375 -0.25zm-2.015625 -9.9375q1.296875 0 3.34375 -0.1875l-2.84375 -9.421875l-0.25 0l-3.421875 9.609375l3.171875 0zm26.859009 10.265625q-2.8125 0 -3.203125 -2.5625l-0.25 -0.109375q-3.75 2.5625 -4.5 2.5625q-2.0625 0 -3.640625 -0.953125q-1.578125 -0.953125 -2.453125 -2.6875q-0.859375 -1.734375 -0.859375 -3.953125q0 -2.5625 1.203125 -4.71875q1.203125 -2.15625 3.265625 -3.4375q2.078125 -1.28125 4.5 -1.28125q1.140625 0 2.484375 0.140625l0 -5.96875q0 -1.953125 -1.34375 -1.953125q-0.25 0 -0.546875 0.0625q-0.28125 0.046875 -0.34375 0.078125l0.140625 -1.328125q1.546875 -0.21875 3.203125 -0.578125q1.65625 -0.359375 2.125 -0.46875l0.21875 0.46875q-0.40625 0.625 -0.71875 7.609375q-0.296875 6.984375 -0.296875 14.859375q0 0.796875 0.390625 1.234375q0.40625 0.421875 1.09375 0.421875q0.5 0 0.984375 -0.1875q0.484375 -0.203125 0.78125 -0.421875q0.3125 -0.21875 0.390625 -0.296875l0.5 0.578125q-0.109375 0.1875 -0.546875 0.78125q-0.421875 0.59375 -1.125 1.25q-0.703125 0.640625 -1.453125 0.859375zm-7.390625 -2.453125q0.765625 0 1.640625 -0.421875q0.890625 -0.4375 1.5 -0.890625q0.609375 -0.453125 0.796875 -0.59375l0 -9.859375q-0.109375 -0.078125 -0.546875 -0.265625q-0.4375 -0.203125 -1.21875 -0.375q-0.765625 -0.1875 -1.734375 -0.1875q-2.40625 0 -3.796875 1.640625q-1.390625 1.625 -1.390625 4.46875q0 1.796875 0.625 3.28125q0.640625 1.46875 1.734375 2.34375q1.109375 0.859375 2.390625 0.859375zm17.066376 2.625q-0.53125 -1.71875 -2.140625 -6.78125q-1.59375 -5.0625 -2.25 -7.0q-0.609375 -1.734375 -2.4375 -1.796875l-0.078125 -0.15625l0.21875 -1.1875l2.984375 0.046875q1.375 0 2.65625 -0.109375q1.296875 -0.109375 1.65625 -0.15625l0.078125 0.1875l-0.21875 1.109375q-1.21875 0.046875 -1.671875 0.25q-0.453125 0.1875 -0.453125 0.6875q0 0.65625 1.296875 5.140625q1.296875 4.46875 1.765625 6.0625l0.140625 0l1.984375 -4.828125q0.96875 -2.375 1.609375 -4.0625q0.65625 -1.703125 0.65625 -2.125q0 -0.46875 -0.34375 -0.65625q-0.34375 -0.203125 -1.203125 -0.203125l-1.359375 0l-0.15625 -0.21875l0.1875 -1.125l3.84375 0.046875l2.953125 -0.046875l-0.25 1.34375q-0.75 0.09375 -1.1875 0.609375q-0.421875 0.5 -1.109375 2.078125l-5.15625 12.28125l-2.015625 0.609375zm11.207504 -1.65625q1.078125 -0.28125 1.546875 -0.84375q0.46875 -0.5625 0.46875 -1.5l0 -9.140625q0 -1.9375 -1.34375 -1.9375q-0.25 0 -0.546875 0.0625q-0.28125 0.046875 -0.34375 0.078125l0.140625 -1.328125q1.515625 -0.21875 3.109375 -0.578125q1.609375 -0.359375 2.078125 -0.46875l0.171875 0.4375q-0.3125 0.75 -0.578125 4.625q-0.25 3.859375 -0.25 8.109375q0 1.046875 0.28125 1.53125q0.296875 0.484375 0.984375 0.484375q0.390625 0 0.75 -0.03125q0.359375 -0.03125 0.515625 -0.03125l0.0625 0.140625l-0.28125 1.546875q-0.328125 -0.03125 -1.234375 -0.078125q-0.890625 -0.03125 -1.96875 -0.03125q-0.9375 0 -2.15625 0.171875q-1.203125 0.1875 -1.5625 0.265625l0.15625 -1.484375zm3.015625 -19.90625q-0.828125 0 -1.296875 -0.53125q-0.46875 -0.546875 -0.46875 -1.296875q0 -0.875 0.609375 -1.5q0.609375 -0.625 1.515625 -0.625q0.828125 0 1.296875 0.546875q0.46875 0.53125 0.46875 1.28125q0 0.859375 -0.609375 1.5q-0.609375 0.625 -1.515625 0.625zm11.558266 21.390625q-1.15625 0 -2.1093826 -0.171875q-0.953125 -0.15625 -1.5 -0.328125q-0.53125 -0.1875 -0.671875 -0.265625l-0.109375 -0.25q0.109375 -0.53125 0.25 -2.21875q0.140625 -1.703125 0.1875 -2.609375l1.25 -0.171875q0 2.375 0.796875 3.34375q0.7968826 0.96875 2.7031326 0.96875q1.359375 0 2.296875 -0.609375q0.9375 -0.609375 0.9375 -1.515625q0 -0.890625 -0.84375 -1.625q-0.84375 -0.75 -3.328125 -2.078125q-2.0625076 -1.046875 -3.0000076 -2.125q-0.921875 -1.078125 -0.921875 -2.375q0 -1.4375 0.859375 -2.609375q0.859375 -1.171875 2.3750076 -1.828125q1.515625 -0.671875 3.390625 -0.671875q0.859375 0 1.640625 0.125q0.796875 0.125 1.296875 0.28125q0.515625 0.140625 0.65625 0.171875l0.078125 0.171875q-0.078125 0.359375 -0.328125 1.640625q-0.25 1.28125 -0.359375 2.75l-1.328125 0.109375q0 -0.109375 0.03125 -0.421875q0.03125 -0.328125 0.03125 -0.609375q0 -1.296875 -0.703125 -1.890625q-0.703125 -0.59375 -2.25 -0.59375q-1.21875 0 -2.0625 0.578125q-0.84375 0.5625 -0.84375 1.390625q0 0.875 0.734375 1.625q0.734375 0.75 2.390625 1.625q2.921875 1.546875 3.984375 2.609375q1.0625 1.0625 1.0625 2.421875q0 1.375 -0.90625 2.5625q-0.90625 1.1875 -2.4375 1.890625q-1.515625 0.703125 -3.25 0.703125zm16.597 0q-2.046875 0 -3.640625 -1.0q-1.578125 -1.015625 -2.46875 -2.828125q-0.875 -1.828125 -0.875 -4.171875q0 -2.515625 1.09375 -4.625q1.09375 -2.109375 3.0 -3.3125q1.921875 -1.203125 4.25 -1.203125q2.015625 0 3.625 1.015625q1.609375 1.0 2.484375 2.828125q0.875 1.8125 0.875 4.140625q0 2.53125 -1.09375 4.640625q-1.09375 2.09375 -3.0 3.3125q-1.90625 1.203125 -4.25 1.203125zm1.0 -1.765625q2.015625 0 3.203125 -1.640625q1.203125 -1.640625 1.203125 -4.453125q0 -2.125 -0.65625 -3.796875q-0.640625 -1.671875 -1.8125 -2.609375q-1.171875 -0.9375 -2.65625 -0.9375q-2.015625 0 -3.203125 1.65625q-1.1875 1.65625 -1.1875 4.5q0 2.125 0.640625 3.78125q0.65625 1.65625 1.8125 2.578125q1.15625 0.921875 2.65625 0.921875zm10.771759 0.03125q1.078125 -0.109375 1.4375 -0.703125q0.359375 -0.59375 0.359375 -2.28125l0 -7.921875q0 -1.1875 -0.328125 -1.6875q-0.3125 -0.515625 -1.03125 -0.515625q-0.296875 0 -0.5 0.046875q-0.1875 0.03125 -0.265625 0.0625l-0.171875 -0.25l0.109375 -1.109375q1.359375 -0.25 2.890625 -0.609375q1.53125 -0.359375 1.96875 -0.46875l0.25 0.203125q-0.078125 0.328125 -0.21875 1.5q-0.140625 1.171875 -0.109375 2.21875l0.140625 0.109375q1.078125 -1.703125 2.53125 -2.78125q1.46875 -1.078125 2.546875 -1.078125q0.5 0 0.765625 0.0625q0.28125 0.046875 0.359375 0.078125l0.09375 0.15625q-0.0625 0.5 -0.296875 2.140625q-0.234375 1.640625 -0.265625 3.0l-1.40625 0.109375q0 -1.46875 -0.203125 -1.953125q-0.203125 -0.5 -0.765625 -0.5q-0.796875 0 -1.703125 0.671875q-0.890625 0.671875 -1.65625 1.78125q-0.03125 1.046875 -0.140625 3.46875q-0.109375 2.40625 -0.140625 3.875q0 1.21875 0.359375 1.65625q0.359375 0.4375 1.359375 0.4375q0.46875 0 0.9375 -0.03125q0.46875 -0.046875 0.65625 -0.046875l0.03125 0.140625l-0.328125 1.59375q-0.359375 0 -1.4375 -0.046875q-1.078125 -0.03125 -2.234375 -0.03125q-1.328125 0 -2.40625 0.046875q-1.078125 0.0625 -1.375 0.09375l0.1875 -1.4375z" fill-rule="nonzero"/></g></g></svg>