<svg version="1.1" viewBox="0.0 0.0 963.7217847769028 123.28608923884515" fill="none" stroke="none" stroke-linecap="square" stroke-miterlimit="10" xmlns:xlink="http://www.w3.org/1999/xlink" xmlns="http://www.w3.org/2000/svg"><clipPath id="p.0"><path d="m0 0l963.7218 0l0 123.28609l-963.7218 0l0 -123.28609z" clip-rule="nonzero"/></clipPath><g clip-path="url(#p.0)"><path fill="#000000" fill-opacity="0.0" d="m0 0l963.7218 0l0 123.28609l-963.7218 0z" fill-rule="evenodd"/><g filter="url(#shadowFilter-p.1)"><use xlink:href="#p.1" transform="matrix(1.0 0.0 0.0 1.0 -5.523029317380249 2.3443869443077427)"/></g><defs><filter id="shadowFilter-p.1" filterUnits="userSpaceOnUse"><feGaussianBlur in="SourceAlpha" stdDeviation="2.0" result="blur"/><feComponentTransfer in="blur" color-interpolation-filters="sRGB"><feFuncR type="linear" slope="0" intercept="0.2627451"/><feFuncG type="linear" slope="0" intercept="0.2627451"/><feFuncB type="linear" slope="0" intercept="0.2627451"/><feFuncA type="linear" slope="0.67" intercept="0"/></feComponentTransfer></filter></defs><g id="p.1"><path fill="#000000" fill-opacity="0.0" d="m0.002624672 0l963.71655 0l0 108.0l-963.71655 0z" fill-rule="evenodd"/><path fill="#1c4587" d="m79.49448 21.069374l0.796875 16.984375l-2.03125 0q-0.59375 -4.484375 -1.609375 -6.40625q-1.640625 -3.09375 -4.390625 -4.5625q-2.75 -1.46875 -7.234375 -1.46875l-10.203125 0l0 55.296875q0 6.671875 1.4375 8.328125q2.03125 2.25 6.25 2.25l2.515625 0l0 1.96875l-30.703125 0l0 -1.96875l2.5625 0q4.59375 0 6.515625 -2.78125q1.171875 -1.703125 1.171875 -7.796875l0 -55.296875l-8.703125 0q-5.0625 0 -7.203125 0.734375q-2.78125 1.015625 -4.75 3.90625q-1.96875 2.875 -2.34375 7.796875l-2.03125 0l0.84375 -16.984375l59.109375 0zm21.297607 -3.515625l0 35.765625q5.921875 -6.515625 9.390625 -8.359375q3.46875 -1.84375 6.9375 -1.84375q4.171875 0 7.15625 2.296875q2.984375 2.296875 4.4375 7.203125q1.0 3.421875 1.0 12.5l0 17.296875q0 4.640625 0.75 6.34375q0.53125 1.28125 1.8125 2.03125q1.28125 0.75 4.703125 0.75l0 1.921875l-24.015625 0l0 -1.921875l1.109375 0q3.421875 0 4.75 -1.03125q1.34375 -1.046875 1.875 -3.078125q0.15625 -0.859375 0.15625 -5.015625l0 -17.296875q0 -8.015625 -0.828125 -10.515625q-0.828125 -2.515625 -2.640625 -3.765625q-1.8125 -1.25 -4.375 -1.25q-2.609375 0 -5.4375 1.390625q-2.828125 1.375 -6.78125 5.59375l0 25.84375q0 5.015625 0.546875 6.25q0.5625 1.21875 2.078125 2.046875q1.53125 0.828125 5.265625 0.828125l0 1.921875l-24.234375 0l0 -1.921875q3.265625 0 5.125 -1.015625q1.078125 -0.53125 1.71875 -2.015625q0.640625 -1.5 0.640625 -6.09375l0 -44.25q0 -8.390625 -0.40625 -10.3125q-0.40625 -1.921875 -1.234375 -2.609375q-0.828125 -0.703125 -2.203125 -0.703125q-1.125 0 -3.640625 0.859375l-0.75 -1.875l14.640625 -5.96875l2.453125 0zm48.523438 45.421875q-0.0625 10.890625 5.28125 17.078125q5.34375 6.203125 12.546875 6.203125q4.796875 0 8.34375 -2.640625q3.5625 -2.640625 5.96875 -9.046875l1.640625 1.0625q-1.109375 7.3125 -6.5 13.328125q-5.390625 6.0 -13.515625 6.0q-8.796875 0 -15.078125 -6.859375q-6.265625 -6.859375 -6.265625 -18.453125q0 -12.546875 6.421875 -19.5625q6.4375 -7.015625 16.15625 -7.015625q8.21875 0 13.5 5.421875q5.28125 5.40625 5.28125 14.484375l-33.78125 0zm0 -3.09375l22.625 0q-0.265625 -4.703125 -1.109375 -6.625q-1.34375 -2.984375 -3.984375 -4.6875q-2.640625 -1.71875 -5.515625 -1.71875q-4.4375 0 -7.9375 3.453125q-3.5 3.4375 -4.078125 9.578125zm130.04459 -40.46875l1.640625 24.609375l-1.640625 0q-3.3125 -11.046875 -9.453125 -15.90625q-6.140625 -4.859375 -14.73439 -4.859375q-7.203125 0 -13.03125 3.65625q-5.8125 3.65625 -9.15625 11.671875q-3.328125 8.0 -3.328125 19.90625q0 9.828125 3.140625 17.03125q3.15625 7.203125 9.484375 11.046875q6.328125 3.84375 14.437515 3.84375q7.046875 0 12.4375 -3.015625q5.390625 -3.015625 11.84375 -11.984375l1.65625 1.078125q-5.4375 9.65625 -12.703125 14.140625q-7.25 4.484375 -17.23439 4.484375q-18.0 0 -27.875 -13.34375q-7.359375 -9.9375 -7.359375 -23.390625q0 -10.828125 4.859375 -19.90625q4.859375 -9.078125 13.359375 -14.0625q8.515625 -5.0 18.609375 -5.0q7.8437653 0 15.48439 3.84375q2.234375 1.171875 3.203125 1.171875q1.4375 0 2.515625 -1.0q1.375 -1.453125 1.96875 -4.015625l1.875 0zm72.92099 0l1.640625 24.609375l-1.640625 0q-3.3125 -11.046875 -9.453125 -15.90625q-6.140625 -4.859375 -14.734375 -4.859375q-7.203125 0 -13.03125 3.65625q-5.8125 3.65625 -9.15625 11.671875q-3.328125 8.0 -3.328125 19.90625q0 9.828125 3.140625 17.03125q3.15625 7.203125 9.484375 11.046875q6.328125 3.84375 14.4375 3.84375q7.046875 0 12.4375 -3.015625q5.390625 -3.015625 11.84375 -11.984375l1.65625 1.078125q-5.4375 9.65625 -12.703125 14.140625q-7.25 4.484375 -17.234375 4.484375q-18.0 0 -27.875 -13.34375q-7.359375 -9.9375 -7.359375 -23.390625q0 -10.828125 4.859375 -19.90625q4.859375 -9.078125 13.359375 -14.0625q8.515625 -5.0 18.609375 -5.0q7.84375 0 15.484375 3.84375q2.234375 1.171875 3.203125 1.171875q1.4375 0 2.515625 -1.0q1.375 -1.453125 1.96875 -4.015625l1.875 0zm29.51477 40.15625l0 21.078125q0 6.828125 1.5 8.484375q2.015625 2.359375 6.125 2.359375l2.78125 0l0 1.96875l-31.015625 0l0 -1.96875l2.71875 0q4.59375 0 6.578125 -3.0q1.0625 -1.65625 1.0625 -7.84375l0 -46.765625q0 -6.828125 -1.4375 -8.484375q-2.09375 -2.34375 -6.203125 -2.34375l-2.71875 0l0 -1.984375l26.53125 0q9.71875 0 15.3125 2.0q5.609375 2.0 9.453125 6.765625q3.84375 4.75 3.84375 11.25q0 8.875 -5.84375 14.421875q-5.84375 5.546875 -16.515625 5.546875q-2.625 0 -5.671875 -0.375q-3.03125 -0.375 -6.5 -1.109375zm0 -3.046875q2.828125 0.53125 5.015625 0.796875q2.1875 0.265625 3.734375 0.265625q5.5625 0 9.578125 -4.296875q4.03125 -4.296875 4.03125 -11.125q0 -4.703125 -1.921875 -8.734375q-1.921875 -4.03125 -5.453125 -6.03125q-3.515625 -2.0 -8.0 -2.0q-2.71875 0 -6.984375 1.015625l0 30.109375zm127.48407 -37.109375l1.640625 24.609375l-1.640625 0q-3.3125 -11.046875 -9.453125 -15.90625q-6.140625 -4.859375 -14.734375 -4.859375q-7.203125 0 -13.03125 3.65625q-5.8125 3.65625 -9.15625 11.671875q-3.328125 8.0 -3.328125 19.90625q0 9.828125 3.140625 17.03125q3.15625 7.203125 9.484375 11.046875q6.328125 3.84375 14.4375 3.84375q7.046875 0 12.4375 -3.015625q5.390625 -3.015625 11.84375 -11.984375l1.6562805 1.078125q-5.4375305 9.65625 -12.7031555 14.140625q-7.25 4.484375 -17.234375 4.484375q-18.0 0 -27.875 -13.34375q-7.359375 -9.9375 -7.359375 -23.390625q0 -10.828125 4.859375 -19.90625q4.859375 -9.078125 13.359375 -14.0625q8.515625 -5.0 18.609375 -5.0q7.84375 0 15.484375 3.84375q2.234375 1.171875 3.203125 1.171875q1.4375 0 2.515625 -1.0q1.375 -1.453125 1.96875 -4.015625l1.875 0zm34.42105 23.703125q11.109375 0 17.828125 8.4375q5.71875 7.203125 5.71875 16.546875q0 6.5625 -3.15625 13.296875q-3.140625 6.71875 -8.671875 10.140625q-5.515625 3.421875 -12.296875 3.421875q-11.0625 0 -17.5625 -8.8125q-5.5 -7.421875 -5.5 -16.65625q0 -6.71875 3.328125 -13.359375q3.34375 -6.65625 8.78125 -9.828125q5.453125 -3.1875 11.53125 -3.1875zm-1.65625 3.46875q-2.828125 0 -5.6875 1.6875q-2.84375 1.6875 -4.609375 5.90625q-1.765625 4.203125 -1.765625 10.828125q0 10.671875 4.234375 18.421875q4.25 7.734375 11.203125 7.734375q5.171875 0 8.53125 -4.265625q3.359375 -4.28125 3.359375 -14.6875q0 -13.015625 -5.59375 -20.5q-3.796875 -5.125 -9.671875 -5.125zm46.664062 6.890625q8.59375 -10.359375 16.390625 -10.359375q4.0 0 6.875 2.0q2.890625 2.0 4.59375 6.59375q1.171875 3.203125 1.171875 9.828125l0 20.875q0 4.640625 0.75 6.296875q0.59375 1.328125 1.890625 2.078125q1.3125 0.75 4.84375 0.75l0 1.921875l-24.1875 0l0 -1.921875l1.015625 0q3.421875 0 4.78125 -1.03125q1.359375 -1.046875 1.890625 -3.078125q0.21875 -0.796875 0.21875 -5.015625l0 -20.015625q0 -6.671875 -1.734375 -9.6875q-1.734375 -3.03125 -5.84375 -3.03125q-6.359375 0 -12.65625 6.953125l0 25.78125q0 4.96875 0.578125 6.140625q0.75 1.546875 2.0625 2.265625q1.3125 0.71875 5.3125 0.71875l0 1.921875l-24.1875 0l0 -1.921875l1.078125 0q3.734375 0 5.03125 -1.890625q1.3125 -1.90625 1.3125 -7.234375l0 -18.15625q0 -8.8125 -0.40625 -10.734375q-0.390625 -1.921875 -1.21875 -2.609375q-0.828125 -0.6875 -2.21875 -0.6875q-1.5 0 -3.578125 0.796875l-0.796875 -1.921875l14.734375 -5.984375l2.296875 0l0 10.359375zm54.664062 0q8.59375 -10.359375 16.390625 -10.359375q4.0 0 6.875 2.0q2.890625 2.0 4.59375 6.59375q1.171875 3.203125 1.171875 9.828125l0 20.875q0 4.640625 0.75 6.296875q0.59375 1.328125 1.890625 2.078125q1.3125 0.75 4.84375 0.75l0 1.921875l-24.1875 0l0 -1.921875l1.015625 0q3.421875 0 4.78125 -1.03125q1.359375 -1.046875 1.890625 -3.078125q0.21875 -0.796875 0.21875 -5.015625l0 -20.015625q0 -6.671875 -1.734375 -9.6875q-1.734375 -3.03125 -5.84375 -3.03125q-6.359375 0 -12.65625 6.953125l0 25.78125q0 4.96875 0.578125 6.140625q0.75 1.546875 2.0625 2.265625q1.3125 0.71875 5.3125 0.71875l0 1.921875l-24.1875 0l0 -1.921875l1.078125 0q3.734375 0 5.03125 -1.890625q1.3125 -1.90625 1.3125 -7.234375l0 -18.15625q0 -8.8125 -0.40625 -10.734375q-0.390625 -1.921875 -1.21875 -2.609375q-0.828125 -0.6875 -2.21875 -0.6875q-1.5 0 -3.578125 0.796875l-0.796875 -1.921875l14.734375 -5.984375l2.296875 0l0 10.359375zm48.632812 9.5q-0.0625 10.890625 5.28125 17.078125q5.34375 6.203125 12.546875 6.203125q4.796875 0 8.34375 -2.640625q3.5625 -2.640625 5.96875 -9.046875l1.640625 1.0625q-1.109375 7.3125 -6.5 13.328125q-5.390625 6.0 -13.515625 6.0q-8.796875 0 -15.078125 -6.859375q-6.265625 -6.859375 -6.265625 -18.453125q0 -12.546875 6.421875 -19.5625q6.4375 -7.015625 16.15625 -7.015625q8.21875 0 13.5 5.421875q5.28125 5.40625 5.28125 14.484375l-33.78125 0zm0 -3.09375l22.625 0q-0.265625 -4.703125 -1.109375 -6.625q-1.34375 -2.984375 -3.984375 -4.6875q-2.640625 -1.71875 -5.515625 -1.71875q-4.4375 0 -7.9375 3.453125q-3.5 3.4375 -4.078125 9.578125zm81.837524 15.0q-1.984375 9.65625 -7.75 14.875q-5.765625 5.203125 -12.75 5.203125q-8.328125 0 -14.53125 -6.984375q-6.1875 -7.0 -6.1875 -18.90625q0 -11.53125 6.859375 -18.734375q6.859375 -7.21875 16.46875 -7.21875q7.203125 0 11.84375 3.828125q4.65625 3.8125 4.65625 7.921875q0 2.03125 -1.3125 3.28125q-1.3125 1.25 -3.65625 1.25q-3.140625 0 -4.75 -2.03125q-0.90625 -1.109375 -1.203125 -4.25q-0.296875 -3.15625 -2.15625 -4.8125q-1.875 -1.609375 -5.1875 -1.609375q-5.328125 0 -8.59375 3.953125q-4.3125 5.234375 -4.3125 13.828125q0 8.75 4.296875 15.453125q4.296875 6.703125 11.609375 6.703125q5.234375 0 9.390625 -3.578125q2.9375 -2.453125 5.71875 -8.921875l1.546875 0.75zm21.181274 -46.390625l0 16.0625l11.4375 0l0 3.75l-11.4375 0l0 31.703125q0 4.75 1.359375 6.40625q1.375 1.65625 3.5 1.65625q1.765625 0 3.421875 -1.09375q1.65625 -1.09375 2.5625 -3.234375l2.078125 0q-1.859375 5.234375 -5.28125 7.875q-3.421875 2.640625 -7.046875 2.640625q-2.453125 0 -4.8125 -1.359375q-2.34375 -1.359375 -3.46875 -3.890625q-1.109375 -2.546875 -1.109375 -7.828125l0 -32.875l-7.75 0l0 -1.765625q2.9375 -1.171875 6.0 -3.96875q3.078125 -2.8125 5.484375 -6.65625q1.21875 -2.03125 3.421875 -7.421875l1.640625 0zm28.624878 -10.9375q2.234375 0 3.8125 1.578125q1.578125 1.5625 1.578125 3.8125q0 2.234375 -1.578125 3.84375q-1.578125 1.59375 -3.8125 1.59375q-2.25 0 -3.859375 -1.59375q-1.59375 -1.609375 -1.59375 -3.84375q0 -2.25 1.578125 -3.8125q1.578125 -1.578125 3.875 -1.578125zm4.421875 25.5625l0 39.296875q0 4.59375 0.671875 6.109375q0.671875 1.515625 1.96875 2.265625q1.3125 0.75 4.78125 0.75l0 1.921875l-23.75 0l0 -1.921875q3.578125 0 4.796875 -0.6875q1.234375 -0.703125 1.953125 -2.296875q0.71875 -1.609375 0.71875 -6.140625l0 -18.84375q0 -7.953125 -0.484375 -10.3125q-0.375 -1.703125 -1.171875 -2.359375q-0.796875 -0.671875 -2.1875 -0.671875q-1.5 0 -3.625 0.796875l-0.75 -1.921875l14.734375 -5.984375l2.34375 0zm37.421753 0q11.109375 0 17.828125 8.4375q5.71875 7.203125 5.71875 16.546875q0 6.5625 -3.15625 13.296875q-3.140625 6.71875 -8.671875 10.140625q-5.515625 3.421875 -12.296875 3.421875q-11.0625 0 -17.5625 -8.8125q-5.5 -7.421875 -5.5 -16.65625q0 -6.71875 3.328125 -13.359375q3.34375 -6.65625 8.78125 -9.828125q5.453125 -3.1875 11.53125 -3.1875zm-1.65625 3.46875q-2.828125 0 -5.6875 1.6875q-2.84375 1.6875 -4.609375 5.90625q-1.765625 4.203125 -1.765625 10.828125q0 10.671875 4.234375 18.421875q4.25 7.734375 11.203125 7.734375q5.171875 0 8.53125 -4.265625q3.359375 -4.28125 3.359375 -14.6875q0 -13.015625 -5.59375 -20.5q-3.796875 -5.125 -9.671875 -5.125zm46.664062 6.890625q8.59375 -10.359375 16.390625 -10.359375q4.0 0 6.875 2.0q2.890625 2.0 4.59375 6.59375q1.171875 3.203125 1.171875 9.828125l0 20.875q0 4.640625 0.75 6.296875q0.59375 1.328125 1.890625 2.078125q1.3125 0.75 4.84375 0.75l0 1.921875l-24.1875 0l0 -1.921875l1.015625 0q3.421875 0 4.78125 -1.03125q1.359375 -1.046875 1.890625 -3.078125q0.21875 -0.796875 0.21875 -5.015625l0 -20.015625q0 -6.671875 -1.734375 -9.6875q-1.734375 -3.03125 -5.84375 -3.03125q-6.359375 0 -12.65625 6.953125l0 25.78125q0 4.96875 0.578125 6.140625q0.75 1.546875 2.0625 2.265625q1.3125 0.71875 5.3125 0.71875l0 1.921875l-24.1875 0l0 -1.921875l1.078125 0q3.734375 0 5.03125 -1.890625q1.3125 -1.90625 1.3125 -7.234375l0 -18.15625q0 -8.8125 -0.40625 -10.734375q-0.390625 -1.921875 -1.21875 -2.609375q-0.828125 -0.6875 -2.21875 -0.6875q-1.5 0 -3.578125 0.796875l-0.796875 -1.921875l14.734375 -5.984375l2.296875 0l0 10.359375z" fill-rule="nonzero"/></g><g filter="url(#shadowFilter-p.2)"><use xlink:href="#p.2" transform="matrix(1.0 0.0 0.0 1.0 -0.5176377984795357 1.9318517649893372)"/></g><defs><filter id="shadowFilter-p.2" filterUnits="userSpaceOnUse"><feGaussianBlur in="SourceAlpha" stdDeviation="2.0" result="blur"/><feComponentTransfer in="blur" color-interpolation-filters="sRGB"><feFuncR type="linear" slope="0" intercept="0.2627451"/><feFuncG type="linear" slope="0" intercept="0.2627451"/><feFuncB type="linear" slope="0" intercept="0.2627451"/><feFuncA type="linear" slope="0.91" intercept="0"/></feComponentTransfer></filter></defs><g id="p.2"><path fill="#000000" fill-opacity="0.0" d="m47.24672 102.76903l881.0079 1.1653519" fill-rule="evenodd"/><path stroke="#1c4587" stroke-width="1.0" stroke-linejoin="round" stroke-linecap="butt" d="m47.24672 102.76903l881.0079 1.1653519" fill-rule="evenodd"/></g></g></svg>