<svg version="1.1" viewBox="0.0 0.0 963.7217847769028 123.28608923884515" fill="none" stroke="none" stroke-linecap="square" stroke-miterlimit="10" xmlns:xlink="http://www.w3.org/1999/xlink" xmlns="http://www.w3.org/2000/svg"><clipPath id="p.0"><path d="m0 0l963.7218 0l0 123.28609l-963.7218 0l0 -123.28609z" clip-rule="nonzero"/></clipPath><g clip-path="url(#p.0)"><path fill="#000000" fill-opacity="0.0" d="m0 0l963.7218 0l0 123.28609l-963.7218 0z" fill-rule="evenodd"/><g filter="url(#shadowFilter-p.1)"><use xlink:href="#p.1" transform="matrix(1.0 0.0 0.0 1.0 -5.523029317380249 2.3443869443077427)"/></g><defs><filter id="shadowFilter-p.1" filterUnits="userSpaceOnUse"><feGaussianBlur in="SourceAlpha" stdDeviation="2.0" result="blur"/><feComponentTransfer in="blur" color-interpolation-filters="sRGB"><feFuncR type="linear" slope="0" intercept="0.2627451"/><feFuncG type="linear" slope="0" intercept="0.2627451"/><feFuncB type="linear" slope="0" intercept="0.2627451"/><feFuncA type="linear" slope="0.67" intercept="0"/></feComponentTransfer></filter></defs><g id="p.1"><path fill="#000000" fill-opacity="0.0" d="m0.002624672 0l963.71655 0l0 108.0l-963.71655 0z" fill-rule="evenodd"/><path fill="#1c4587" d="m79.65216 27.747498q-3.703125 0 -11.421875 -0.59375q-7.515625 -0.546875 -11.4375 -0.5l-3.546875 0q0.140625 6.90625 1.34375 22.453125q1.109375 14.484375 1.109375 22.5q0 1.765625 0.34375 5.328125q0.359375 3.546875 0.359375 5.359375q0 3.40625 -1.109375 5.859375q-1.40625 3.3125 -4.359375 3.3125q-2.0 0 -3.609375 -1.40625q-1.609375 -1.40625 -1.609375 -3.609375q0 -0.75 0.25 -2.25q0.265625 -1.515625 0.265625 -2.265625q0 -2.453125 -0.328125 -7.359375q-0.328125 -4.921875 -0.328125 -7.421875q0 -7.171875 -1.15625 -20.15625q-1.203125 -14.03125 -1.359375 -20.140625l-4.546875 0.046875q-10.984375 0 -17.25 -1.609375q-4.0625 -1.046875 -4.0625 -4.953125q0 -2.0625 1.3125 -3.609375q1.5 -1.765625 3.859375 -1.609375q1.75 0.09375 8.015625 0.90625q5.015625 0.59375 8.125 0.59375q3.0 0 9.109375 -0.125q6.125 -0.125 9.125 -0.125q3.859375 0 11.453125 0.5625q7.59375 0.546875 11.453125 0.546875q2.15625 0 3.609375 1.484375q1.453125 1.46875 1.453125 3.671875q0 2.15625 -1.453125 3.640625q-1.453125 1.46875 -3.609375 1.46875zm50.43042 66.421875q-3.5625 0 -4.65625 -3.8125q-1.15625 -4.109375 -2.109375 -11.671875q-0.90625 -7.28125 -0.90625 -11.9375q0 -1.296875 0.125 -3.953125q0.125 -2.65625 0.125 -3.96875q0 -9.421875 -4.703125 -9.421875q-6.375 0 -11.390625 5.765625q-2.546875 2.953125 -7.015625 11.28125q0 19.09375 -1.59375 22.609375q-1.40625 3.109375 -4.359375 3.109375q-2.0625 0 -3.625 -1.40625q-1.546875 -1.40625 -1.546875 -3.40625q0 -0.703125 0.453125 -2.21875q0.40625 -1.25 0.546875 -7.3125l0.15625 -7.421875l0.15625 -36.84375q0.34375 -6.203125 0.34375 -8.359375q0 -2.5625 -0.484375 -4.84375q-0.46875 -2.28125 -0.46875 -4.734375q0 -2.109375 1.453125 -3.484375q1.453125 -1.375 3.5625 -1.375q4.109375 0 4.8125 4.40625q0.796875 4.859375 0.796875 8.765625q0 5.265625 -0.34375 10.984375q-0.3125 5.46875 -0.25 10.984375l0.046875 4.40625q4.109375 -5.515625 8.796875 -8.25q4.6875 -2.734375 9.953125 -2.734375q8.3125 0 11.421875 5.421875q2.203125 3.8125 2.515625 12.828125l0.390625 9.578125l1.0 10.421875q0.703125 5.859375 1.703125 10.328125q0.203125 0.84375 0.203125 1.453125q0 2.046875 -1.5 3.421875q-1.5 1.390625 -3.609375 1.390625zm40.751144 -0.796875q-11.328125 0 -18.34375 -5.671875q-7.671875 -6.265625 -7.671875 -17.546875q0 -13.03125 6.3125 -21.84375q6.875 -9.625 18.34375 -9.625q8.328125 0 13.59375 2.796875q6.46875 3.46875 6.46875 10.625q0 5.015625 -5.671875 9.125q-2.5 1.8125 -10.625 5.625l-19.140625 9.0625q2.796875 4.15625 6.984375 6.265625q4.1875 2.109375 9.75 2.109375q3.453125 0 8.125 -1.296875q5.90625 -1.65625 7.609375 -4.34375q1.703125 -2.6875 3.671875 -2.6875q1.75 0 3.125 1.328125q1.375 1.328125 1.375 3.09375q0 5.5625 -8.96875 9.5625q-7.671875 3.421875 -14.9375 3.421875zm-1.359375 -45.671875q-6.109375 0 -10.171875 4.734375q-4.0625 4.734375 -6.0625 14.265625l15.390625 -7.3125q9.078125 -4.421875 12.9375 -7.671875q-4.3125 -4.015625 -12.09375 -4.015625zm113.24507 -12.875q-3.21875 0 -4.8125 -3.765625q-1.40625 -3.203125 -2.609375 -3.90625q-1.0625 -0.546875 -5.21875 -0.546875q-7.265625 0 -16.14061 11.125q-12.03125 14.9375 -12.03125 28.3125q0 6.46875 4.171875 11.125q4.25 4.8125 10.26561 4.8125q5.171875 0 10.375 -2.65625q2.90625 -1.5 8.921875 -5.90625q2.859375 -2.109375 4.3125 -2.109375q2.15625 0 3.609375 1.640625q1.453125 1.625 1.453125 3.625q0 2.25 -1.90625 3.953125q-13.234375 11.734375 -26.765625 11.734375q-10.374985 0 -17.54686 -7.96875q-6.90625 -7.71875 -6.90625 -18.25q0 -16.984375 14.234375 -34.828125q11.874985 -14.890625 23.95311 -14.890625q2.453125 0 4.40625 0.234375q1.96875 0.21875 3.46875 0.71875q1.75 -2.5625 4.5625 -2.5625q3.453125 0 4.359375 4.5625q0.796875 4.0625 0.796875 9.984375q0 2.046875 -1.09375 3.609375q-1.359375 1.953125 -3.859375 1.953125zm61.85443 0q-3.21875 0 -4.8125 -3.765625q-1.40625 -3.203125 -2.609375 -3.90625q-1.0625 -0.546875 -5.21875 -0.546875q-7.265625 0 -16.140625 11.125q-12.03125 14.9375 -12.03125 28.3125q0 6.46875 4.171875 11.125q4.25 4.8125 10.265625 4.8125q5.171875 0 10.375 -2.65625q2.90625 -1.5 8.921875 -5.90625q2.859375 -2.109375 4.3125 -2.109375q2.15625 0 3.609375 1.640625q1.453125 1.625 1.453125 3.625q0 2.25 -1.90625 3.953125q-13.234375 11.734375 -26.765625 11.734375q-10.375 0 -17.546875 -7.96875q-6.90625 -7.71875 -6.90625 -18.25q0 -16.984375 14.234375 -34.828125q11.875 -14.890625 23.953125 -14.890625q2.453125 0 4.40625 0.234375q1.96875 0.21875 3.46875 0.71875q1.75 -2.5625 4.5625 -2.5625q3.453125 0 4.359375 4.5625q0.796875 4.0625 0.796875 9.984375q0 2.046875 -1.09375 3.609375q-1.359375 1.953125 -3.859375 1.953125zm27.213776 26.8125q-1.40625 0 -6.109375 -0.65625q-0.40625 7.578125 -0.40625 26.515625q0 2.015625 -1.3125 3.390625q-1.296875 1.375 -3.25 1.375q-2.0 0 -3.3125 -1.375q-1.296875 -1.375 -1.296875 -3.390625l0 -14.734375q0 -7.375 0.90625 -20.75q1.0 -14.484375 1.09375 -20.75l0 -6.921875q0 -4.953125 0.609375 -7.21875q1.140625 -4.40625 4.90625 -3.8125q1.609375 -0.5 4.5625 -0.75q2.953125 -0.25 7.265625 -0.25q9.171875 0 17.1875 6.265625q8.828125 6.921875 8.828125 16.640625q0 12.4375 -9.421875 19.796875q-8.421875 6.625 -20.25 6.625zm2.5 -39.796875q-2.203125 0 -3.9375 0.109375q-1.71875 0.09375 -2.921875 0.28125l-0.109375 9.234375l-1.046875 19.9375l5.515625 0.65625q8.421875 0 14.1875 -4.265625q6.3125 -4.65625 6.3125 -12.578125q0 -5.609375 -6.015625 -9.671875q-5.5625 -3.703125 -11.984375 -3.703125zm116.25058 12.984375q-3.21875 0 -4.8125 -3.765625q-1.40625 -3.203125 -2.609375 -3.90625q-1.0625 -0.546875 -5.21875 -0.546875q-7.265625 0 -16.140625 11.125q-12.03125 14.9375 -12.03125 28.3125q0 6.46875 4.171875 11.125q4.25 4.8125 10.265625 4.8125q5.171875 0 10.375 -2.65625q2.90625 -1.5 8.921875 -5.90625q2.859375 -2.109375 4.3125 -2.109375q2.15625 0 3.609375 1.640625q1.453125 1.625 1.453125 3.625q0 2.25 -1.90625 3.953125q-13.234375 11.734375 -26.765625 11.734375q-10.375 0 -17.546875 -7.96875q-6.90625 -7.71875 -6.90625 -18.25q0 -16.984375 14.234375 -34.828125q11.875 -14.890625 23.953125 -14.890625q2.453125 0 4.40625 0.234375q1.96875 0.21875 3.46875 0.71875q1.75 -2.5625 4.5625 -2.5625q3.453125 0 4.359375 4.5625q0.796875 4.0625 0.796875 9.984375q0 2.046875 -1.09375 3.609375q-1.359375 1.953125 -3.859375 1.953125zm32.276306 59.1875q-8.421875 0 -14.4844055 -6.21875q-6.765625 -6.90625 -7.125 -18.59375q-0.296875 -11.328125 5.71875 -19.9375q7.0156555 -10.1875 19.546906 -10.1875q10.03125 0 15.1875 9.171875q4.109375 7.421875 3.96875 17.84375q-0.15625 11.140625 -5.828125 19.0q-6.40625 8.921875 -16.984375 8.921875zm3.0 -44.75q-7.359375 -0.0625 -11.46875 7.015625q-3.2656555 5.65625 -3.2656555 12.921875q0 7.265625 3.9687805 11.328125q3.296875 3.359375 7.765625 3.359375q5.21875 0 8.96875 -3.8125q4.265625 -4.203125 4.515625 -11.375q0.703125 -19.390625 -10.484375 -19.4375zm70.62537 45.359375q-4.296875 0 -4.859375 -4.71875l-1.40625 -10.96875q-0.6875 -5.875 -0.6875 -10.984375q0 -1.40625 0.171875 -4.765625q0.171875 -3.359375 0.171875 -4.75q0 -10.828125 -4.015625 -10.828125q-5.609375 0 -10.71875 6.65625q-4.609375 6.0625 -7.21875 15.34375q-0.109375 1.953125 -0.453125 4.90625q-0.296875 2.515625 -0.296875 4.875q0 1.5 0.296875 4.515625q0.296875 3.0 0.296875 4.5q0 2.25 -1.375 3.65625q-1.375 1.40625 -3.53125 1.40625q-2.203125 0 -3.5625 -1.40625q-1.359375 -1.40625 -1.359375 -3.65625q0 -1.5 -0.328125 -4.5q-0.3125 -3.015625 -0.3125 -4.515625q0 -5.171875 0.71875 -14.3125q0.734375 -9.15625 0.734375 -14.3125q0 -1.609375 -0.1875 -4.765625q-0.171875 -3.15625 -0.171875 -4.765625q0 -2.15625 1.421875 -3.53125q1.4375 -1.375 3.546875 -1.375q4.609375 0 5.0625 6.515625l0.15625 5.859375q8.421875 -11.21875 17.28125 -11.21875q8.03125 0 11.1875 7.0625q2.15625 4.71875 2.359375 13.9375l0 5.0625l-0.0625 4.65625q0 4.15625 1.078125 10.75q1.078125 6.59375 1.078125 10.703125q0 2.203125 -1.4375 3.578125q-1.421875 1.390625 -3.578125 1.390625zm53.73413 0q-4.296875 0 -4.859375 -4.71875l-1.40625 -10.96875q-0.6875 -5.875 -0.6875 -10.984375q0 -1.40625 0.171875 -4.765625q0.171875 -3.359375 0.171875 -4.75q0 -10.828125 -4.015625 -10.828125q-5.609375 0 -10.71875 6.65625q-4.609375 6.0625 -7.21875 15.34375q-0.109375 1.953125 -0.453125 4.90625q-0.296875 2.515625 -0.296875 4.875q0 1.5 0.296875 4.515625q0.296875 3.0 0.296875 4.5q0 2.25 -1.375 3.65625q-1.375 1.40625 -3.53125 1.40625q-2.203125 0 -3.5625 -1.40625q-1.359375 -1.40625 -1.359375 -3.65625q0 -1.5 -0.328125 -4.5q-0.3125 -3.015625 -0.3125 -4.515625q0 -5.171875 0.71875 -14.3125q0.734375 -9.15625 0.734375 -14.3125q0 -1.609375 -0.1875 -4.765625q-0.171875 -3.15625 -0.171875 -4.765625q0 -2.15625 1.421875 -3.53125q1.4375 -1.375 3.546875 -1.375q4.609375 0 5.0625 6.515625l0.15625 5.859375q8.421875 -11.21875 17.28125 -11.21875q8.03125 0 11.1875 7.0625q2.15625 4.71875 2.359375 13.9375l0 5.0625l-0.0625 4.65625q0 4.15625 1.078125 10.75q1.078125 6.59375 1.078125 10.703125q0 2.203125 -1.4375 3.578125q-1.421875 1.390625 -3.578125 1.390625zm38.70288 -1.25q-11.328125 0 -18.34375 -5.671875q-7.671875 -6.265625 -7.671875 -17.546875q0 -13.03125 6.3125 -21.84375q6.875 -9.625 18.34375 -9.625q8.328125 0 13.59375 2.796875q6.46875 3.46875 6.46875 10.625q0 5.015625 -5.671875 9.125q-2.5 1.8125 -10.625 5.625l-19.140625 9.0625q2.796875 4.15625 6.984375 6.265625q4.1875 2.109375 9.75 2.109375q3.453125 0 8.125 -1.296875q5.90625 -1.65625 7.609375 -4.34375q1.703125 -2.6875 3.671875 -2.6875q1.75 0 3.125 1.328125q1.375 1.328125 1.375 3.09375q0 5.5625 -8.96875 9.5625q-7.671875 3.421875 -14.9375 3.421875zm-1.359375 -45.671875q-6.109375 0 -10.171875 4.734375q-4.0625 4.734375 -6.0625 14.265625l15.390625 -7.3125q9.078125 -4.421875 12.9375 -7.671875q-4.3125 -4.015625 -12.09375 -4.015625zm56.84973 46.515625q-10.28125 0 -17.140625 -6.21875q-7.21875 -6.515625 -7.21875 -17.1875q0 -10.171875 6.765625 -21.0q7.515625 -12.03125 16.9375 -12.03125q4.921875 0 10.984375 2.296875q7.671875 2.96875 7.671875 7.21875q0 1.90625 -1.265625 3.390625q-1.25 1.484375 -3.09375 1.484375q-1.46875 0 -2.546875 -0.875q-1.0625 -0.890625 -2.078125 -1.734375q-2.953125 -2.359375 -9.671875 -2.359375q-5.109375 0 -10.125 9.125q-4.5625 8.375 -4.5625 14.484375q0 6.609375 4.515625 10.421875q4.203125 3.5625 10.828125 3.5625q3.0 0 6.421875 -1.609375l5.8125 -3.109375q1.5 -0.796875 2.15625 -0.796875q1.84375 0 3.203125 1.484375q1.359375 1.46875 1.359375 3.375q0 3.65625 -7.71875 7.078125q-6.78125 3.0 -11.234375 3.0zm63.60663 -45.859375q-1.046875 0 -2.484375 -0.09375q-1.421875 -0.109375 -2.484375 -0.109375q-1.140625 0 -6.8125 0.75l0.953125 29.625l0.046875 2.203125l0.0625 2.5625q0.1875 10.96875 -5.265625 10.96875q-2.015625 0 -3.5 -1.3125q-1.46875 -1.296875 -1.46875 -3.25q0 -1.90625 0.140625 -5.703125q0.15625 -3.8125 0.15625 -5.71875l-1.0 -29.28125q-3.65625 -0.140625 -11.125 -0.84375q-4.453125 -0.609375 -4.453125 -4.96875q0 -2.203125 1.34375 -3.65625q1.359375 -1.453125 3.453125 -1.453125l10.53125 0.859375q0 -2.5625 -0.234375 -6.84375q-0.21875 -4.296875 -0.21875 -6.1875q0 -2.109375 1.453125 -3.484375q1.453125 -1.390625 3.5625 -1.390625q4.515625 0 5.265625 7.375q0.15625 1.859375 0.15625 4.46875l-0.109375 2.90625l-0.046875 3.09375q6.21875 -0.796875 7.109375 -0.796875q5.21875 0 6.828125 0.5q3.046875 1.0 3.046875 4.71875q0 2.203125 -1.375 3.640625q-1.375 1.421875 -3.53125 1.421875zm24.417603 -20.75q-2.40625 0 -4.171875 -1.703125q-1.75 -1.703125 -1.75 -4.109375q0 -2.40625 1.75 -4.109375q1.765625 -1.71875 4.171875 -1.71875q2.40625 0 4.125 1.71875q1.734375 1.703125 1.734375 4.109375q0 2.40625 -1.734375 4.109375q-1.71875 1.703125 -4.125 1.703125zm2.25 40.703125q0 3.0 0.171875 9.0q0.171875 5.984375 0.171875 8.984375q0 2.203125 -1.359375 3.609375q-1.34375 1.40625 -3.546875 1.40625q-2.15625 0 -3.53125 -1.40625q-1.375 -1.40625 -1.375 -3.609375q0 -3.0 -0.1875 -8.984375q-0.171875 -6.0 -0.171875 -9.0q0 -4.71875 0.5 -11.75q0.5 -7.046875 0.5 -11.765625q0 -2.25 1.375 -3.65625q1.390625 -1.40625 3.546875 -1.40625q2.15625 0 3.53125 1.40625q1.375 1.40625 1.375 3.65625q0 4.71875 -0.5 11.765625q-0.5 7.03125 -0.5 11.75zm35.74054 25.703125q-8.421875 0 -14.484375 -6.21875q-6.765625 -6.90625 -7.125 -18.59375q-0.296875 -11.328125 5.71875 -19.9375q7.015625 -10.1875 19.546875 -10.1875q10.03125 0 15.1875 9.171875q4.109375 7.421875 3.96875 17.84375q-0.15625 11.140625 -5.828125 19.0q-6.40625 8.921875 -16.984375 8.921875zm3.0 -44.75q-7.359375 -0.0625 -11.46875 7.015625q-3.265625 5.65625 -3.265625 12.921875q0 7.265625 3.96875 11.328125q3.296875 3.359375 7.765625 3.359375q5.21875 0 8.96875 -3.8125q4.265625 -4.203125 4.515625 -11.375q0.703125 -19.390625 -10.484375 -19.4375zm70.62537 45.359375q-4.296875 0 -4.859375 -4.71875l-1.40625 -10.96875q-0.6875 -5.875 -0.6875 -10.984375q0 -1.40625 0.171875 -4.765625q0.171875 -3.359375 0.171875 -4.75q0 -10.828125 -4.015625 -10.828125q-5.609375 0 -10.71875 6.65625q-4.609375 6.0625 -7.21875 15.34375q-0.109375 1.953125 -0.453125 4.90625q-0.296875 2.515625 -0.296875 4.875q0 1.5 0.296875 4.515625q0.296875 3.0 0.296875 4.5q0 2.25 -1.375 3.65625q-1.375 1.40625 -3.53125 1.40625q-2.203125 0 -3.5625 -1.40625q-1.359375 -1.40625 -1.359375 -3.65625q0 -1.5 -0.328125 -4.5q-0.3125 -3.015625 -0.3125 -4.515625q0 -5.171875 0.71875 -14.3125q0.734375 -9.15625 0.734375 -14.3125q0 -1.609375 -0.1875 -4.765625q-0.171875 -3.15625 -0.171875 -4.765625q0 -2.15625 1.421875 -3.53125q1.4375 -1.375 3.546875 -1.375q4.609375 0 5.0625 6.515625l0.15625 5.859375q8.421875 -11.21875 17.28125 -11.21875q8.03125 0 11.1875 7.0625q2.15625 4.71875 2.359375 13.9375l0 5.0625l-0.0625 4.65625q0 4.15625 1.078125 10.75q1.078125 6.59375 1.078125 10.703125q0 2.203125 -1.4375 3.578125q-1.421875 1.390625 -3.578125 1.390625z" fill-rule="nonzero"/></g><g filter="url(#shadowFilter-p.2)"><use xlink:href="#p.2" transform="matrix(1.0 0.0 0.0 1.0 -0.5176377984795357 1.9318517649893372)"/></g><defs><filter id="shadowFilter-p.2" filterUnits="userSpaceOnUse"><feGaussianBlur in="SourceAlpha" stdDeviation="2.0" result="blur"/><feComponentTransfer in="blur" color-interpolation-filters="sRGB"><feFuncR type="linear" slope="0" intercept="0.2627451"/><feFuncG type="linear" slope="0" intercept="0.2627451"/><feFuncB type="linear" slope="0" intercept="0.2627451"/><feFuncA type="linear" slope="0.91" intercept="0"/></feComponentTransfer></filter></defs><g id="p.2"><path fill="#000000" fill-opacity="0.0" d="m47.24672 102.76903l881.0079 1.1653519" fill-rule="evenodd"/><path stroke="#1c4587" stroke-width="1.0" stroke-linejoin="round" stroke-linecap="butt" d="m47.24672 102.76903l881.0079 1.1653519" fill-rule="evenodd"/></g></g></svg>