<svg version="1.1" viewBox="0.0 0.0 225.78477690288713 100.0" fill="none" stroke="none" stroke-linecap="square" stroke-miterlimit="10" xmlns:xlink="http://www.w3.org/1999/xlink" xmlns="http://www.w3.org/2000/svg"><clipPath id="p.0"><path d="m0 0l225.78477 0l0 100.0l-225.78477 0l0 -100.0z" clip-rule="nonzero"/></clipPath><g clip-path="url(#p.0)"><path fill="#000000" fill-opacity="0.0" d="m0 0l225.78477 0l0 100.0l-225.78477 0z" fill-rule="evenodd"/><g filter="url(#shadowFilter-p.1)"><use xlink:href="#p.1" transform="matrix(1.0 0.0 0.0 1.0 -6.251925571071194 6.474058296423885)"/></g><defs><filter id="shadowFilter-p.1" filterUnits="userSpaceOnUse"><feGaussianBlur in="SourceAlpha" stdDeviation="2.0" result="blur"/><feComponentTransfer in="blur" color-interpolation-filters="sRGB"><feFuncR type="linear" slope="0" intercept="0.2627451"/><feFuncG type="linear" slope="0" intercept="0.2627451"/><feFuncB type="linear" slope="0" intercept="0.2627451"/><feFuncA type="linear" slope="0.5" intercept="0"/></feComponentTransfer></filter></defs><g id="p.1"><defs><radialGradient id="p.2" gradientUnits="userSpaceOnUse" gradientTransform="matrix(10.338859673917398 0.0 0.0 10.338859673917398 0.0 0.0)" spreadMethod="pad" cx="10.9830771496771" cy="3.8073008869250375" fx="10.9830771496771" fy="3.8073008869250375" r="10.338859558105469"><stop offset="0.0" stop-color="#6d9eeb"/><stop offset="1.0" stop-color="#113d8a"/></radialGradient></defs><path fill="url(#p.2)" d="m8.828084 25.085077l0 0c0 -3.9428997 3.196351 -7.13925 7.1392508 -7.13925l195.17032 0c1.8934479 0 3.7093506 0.75216866 5.048218 2.0910378c1.3388672 1.3388691 2.091034 3.1547642 2.091034 5.048212l0 28.556147c0 3.9428978 -3.19635 7.139248 -7.1392517 7.139248l-195.17032 0l0 0c-3.9428997 0 -7.1392508 -3.19635 -7.1392508 -7.139248z" fill-rule="evenodd"/><path stroke="#073763" stroke-width="1.0" stroke-linejoin="round" stroke-linecap="butt" d="m8.828084 25.085077l0 0c0 -3.9428997 3.196351 -7.13925 7.1392508 -7.13925l195.17032 0c1.8934479 0 3.7093506 0.75216866 5.048218 2.0910378c1.3388672 1.3388691 2.091034 3.1547642 2.091034 5.048212l0 28.556147c0 3.9428978 -3.19635 7.139248 -7.1392517 7.139248l-195.17032 0l0 0c-3.9428997 0 -7.1392508 -3.19635 -7.1392508 -7.139248z" fill-rule="evenodd"/><path fill="#f3f3f3" d="m67.54009 51.04815q1.59375 -0.28125 2.09375 -0.828125q0.5 -0.5625 0.5 -2.109375l0.03125 -15.125q0 -1.15625 -0.265625 -1.546875q-0.265625 -0.40625 -1.0625 -0.40625q-0.359375 0 -0.71875 0.046875q-0.359375 0.03125 -0.5 0.03125l-0.078125 -0.140625l0.25 -1.59375q0.4375 0.046875 1.625 0.078125q1.1875 0.03125 2.375 0.03125q1.125 0 2.546875 -0.046875q1.421875 -0.0625 1.984375 -0.09375q3.75 0 5.734375 1.65625q1.984375 1.65625 1.984375 4.75q0 2.015625 -1.171875 3.84375q-1.171875 1.8125 -3.078125 2.9375q-1.90625 1.109375 -4.0 1.109375l-3.03125 0l-0.0625 3.53125q0 1.71875 0.109375 2.46875q0.109375 0.734375 0.40625 0.96875q0.3125 0.234375 1.0625 0.234375q0.609375 0 1.171875 -0.03125q0.5625 -0.046875 0.78125 -0.078125l0.0625 0.140625l-0.328125 1.65625q-0.359375 -0.03125 -1.3125 -0.078125q-0.953125 -0.03125 -2.0 -0.03125q-1.4375 0 -3.359375 0.109375q-1.921875 0.109375 -2.0 0.171875l0.25 -1.65625zm9.109375 -9.0q2.15625 -0.359375 3.25 -1.75q1.109375 -1.40625 1.109375 -3.859375q0 -2.765625 -1.640625 -4.046875q-1.640625 -1.28125 -5.125 -1.28125q-0.65625 0 -0.796875 0.078125q-0.140625 0.0625 -0.171875 0.421875q-0.328125 4.578125 -0.4375 9.90625l3.8125 0.53125zm20.881638 10.8125q-2.921875 0 -3.203125 -2.921875l-0.140625 -0.03125q-1.296875 1.296875 -2.359375 2.046875q-1.0625 0.75 -1.609375 0.75q-2.015625 0 -3.3125 -1.25q-1.296875 -1.265625 -1.296875 -3.203125q0 -1.046875 0.515625 -1.828125q0.53125 -0.796875 1.40625 -1.0625l6.828125 -1.859375l0.046875 -1.59375q0 -1.796875 -0.828125 -2.796875q-0.828125 -1.015625 -2.34375 -1.015625q-1.015625 0 -2.125 0.46875q-1.109375 0.46875 -2.203125 1.328125l-0.171875 -0.109375l-0.4375 -1.546875q1.703125 -0.96875 3.40625 -1.734375q1.703125 -0.78125 2.46875 -0.78125q2.34375 0 3.671875 1.234375q1.328125 1.21875 1.328125 3.40625q0 0.796875 -0.25 3.25q-0.390625 3.953125 -0.390625 5.03125q0 0.796875 0.390625 1.234375q0.390625 0.421875 1.078125 0.421875q0.578125 0 1.1875 -0.265625q0.609375 -0.265625 0.96875 -0.640625l0.515625 0.578125q-0.546875 0.90625 -1.390625 1.75q-0.84375 0.84375 -1.75 1.140625zm-6.6875 -2.59375q0.671875 0 1.59375 -0.484375q0.921875 -0.484375 1.671875 -1.25l0.1875 -3.671875l-4.90625 1.484375q-1.03125 0.3125 -1.03125 1.5q0 1.046875 0.6875 1.734375q0.703125 0.6875 1.796875 0.6875zm12.197876 0.859375q1.078125 -0.109375 1.4375 -0.703125q0.359375 -0.59375 0.359375 -2.28125l0 -7.921875q0 -1.1875 -0.328125 -1.6875q-0.3125 -0.515625 -1.03125 -0.515625q-0.296875 0 -0.5 0.046875q-0.1875 0.03125 -0.265625 0.0625l-0.171875 -0.25l0.109375 -1.109375q1.359375 -0.25 2.890625 -0.609375q1.53125 -0.359375 1.96875 -0.46875l0.25 0.203125q-0.078125 0.328125 -0.21875 1.5q-0.140625 1.171875 -0.109375 2.21875l0.140625 0.109375q1.078125 -1.703125 2.53125 -2.78125q1.46875 -1.078125 2.546875 -1.078125q0.5 0 0.765625 0.0625q0.28125 0.046875 0.359375 0.078125l0.09375 0.15625q-0.0625 0.5 -0.296875 2.140625q-0.234375 1.640625 -0.265625 3.0l-1.40625 0.109375q0 -1.46875 -0.203125 -1.953125q-0.203125 -0.5 -0.765625 -0.5q-0.796875 0 -1.703125 0.671875q-0.890625 0.671875 -1.65625 1.78125q-0.03125 1.046875 -0.140625 3.46875q-0.109375 2.40625 -0.140625 3.875q0 1.21875 0.359375 1.65625q0.359375 0.4375 1.359375 0.4375q0.46875 0 0.9375 -0.03125q0.46875 -0.046875 0.65625 -0.046875l0.03125 0.140625l-0.328125 1.59375q-0.359375 0 -1.4375 -0.046875q-1.078125 -0.03125 -2.234375 -0.03125q-1.328125 0 -2.40625 0.046875q-1.078125 0.0625 -1.375 0.09375l0.1875 -1.4375zm20.162384 1.734375q-2.234375 0 -3.96875 -0.984375q-1.71875 -1.0 -2.65625 -2.8125q-0.9375 -1.828125 -0.9375 -4.171875q0 -2.40625 1.09375 -4.53125q1.09375 -2.125 2.921875 -3.375q1.84375 -1.265625 3.9375 -1.265625q2.625 0 3.984375 1.328125q1.3750076 1.328125 1.3750076 3.890625q0 1.046875 -0.203125 1.765625l-0.46875 0.4375l-9.937508 0q-0.046875 3.484375 1.375 5.375q1.421875 1.890625 3.984375 1.890625q2.015625 0 4.3906326 -1.109375l0.21875 0.0625l0.390625 1.046875q-1.2968826 0.9375 -2.8593826 1.703125q-1.5625 0.75 -2.640625 0.75zm1.796875 -11.375q0.546875 -0.078125 0.71875 -0.25q0.1875 -0.1875 0.1875 -0.734375q0 -1.4375 -0.78125 -2.1875q-0.765625 -0.765625 -2.21875 -0.765625q-1.6875 0 -2.890625 1.15625q-1.203125 1.15625 -1.53125 3.09375l6.515625 -0.3125zm17.237389 9.890625q1.09375 -0.28125 1.546875 -0.84375q0.46875 -0.5625 0.46875 -1.5l0.15625 -7.125q0 -1.796875 -0.78125 -2.765625q-0.765625 -0.96875 -2.21875 -0.96875q-1.140625 0 -2.328125 0.59375q-1.1875 0.59375 -2.09375 1.265625q-0.328125 7.453125 -0.328125 8.859375q0 1.125 0.28125 1.578125q0.296875 0.4375 1.015625 0.4375q0.40625 0 0.765625 -0.03125q0.359375 -0.03125 0.5 -0.03125l0.0625 0.140625l-0.3125 1.546875q-0.328125 -0.03125 -1.265625 -0.078125q-0.9375 -0.03125 -2.015625 -0.03125q-0.9375 0 -2.078125 0.09375q-1.125 0.09375 -1.484375 0.125l0.1875 -1.484375q1.03125 -0.171875 1.46875 -0.640625q0.4375 -0.46875 0.4375 -1.484375l0 -8.78125q0 -1.21875 -0.40625 -1.703125q-0.390625 -0.484375 -1.359375 -0.484375l-0.40625 0l-0.109375 -0.15625l0.109375 -1.1875q1.546875 -0.25 3.078125 -0.578125q1.53125 -0.34375 1.96875 -0.453125l0.21875 0.28125q-0.078125 0.21875 -0.21875 0.921875q-0.140625 0.703125 -0.1875 1.453125l0.078125 0.109375q4.109375 -2.734375 5.296875 -2.734375q2.265625 0 3.59375 1.265625q1.328125 1.25 1.328125 3.375q0 0.359375 -0.203125 3.3125q-0.296875 3.75 -0.296875 5.21875q0 1.046875 0.28125 1.53125q0.296875 0.484375 0.984375 0.484375q0.390625 0 0.75 -0.03125q0.359375 -0.03125 0.5 -0.03125l0.078125 0.140625l-0.28125 1.546875q-0.328125 -0.03125 -1.234375 -0.078125q-0.890625 -0.03125 -1.96875 -0.03125q-0.9375 0 -2.15625 0.171875q-1.203125 0.1875 -1.5625 0.265625l0.140625 -1.484375zm15.384247 1.484375q-2.453125 0 -3.46875 -0.984375q-1.0 -1.0 -1.0 -3.375l0 -8.859375q0 -0.96875 -0.4375 -1.359375q-0.421875 -0.40625 -1.609375 -0.4375l-0.15625 -0.21875l0.1875 -1.078125q1.046875 -0.5 2.03125 -1.234375q0.984375 -0.75 1.609375 -1.296875q0.640625 -0.5625 0.828125 -0.75l0.71875 0.296875q-0.046875 0.171875 -0.125 0.859375q-0.0625 0.6875 -0.171875 1.84375l5.296875 -0.109375l0.109375 0.109375l-0.328125 1.90625l-5.21875 -0.109375q-0.25 3.953125 -0.25 9.0q0 1.828125 0.625 2.59375q0.640625 0.75 2.1875 0.75q0.53125 0 1.0625 -0.140625q0.546875 -0.140625 0.90625 -0.296875q0.359375 -0.171875 0.46875 -0.203125l0.359375 0.921875q-0.203125 0.1875 -0.90625 0.6875q-0.703125 0.5 -1.515625 1.0q-0.8125 0.484375 -1.203125 0.484375z" fill-rule="nonzero"/></g></g></svg>