<svg version="1.1" viewBox="0.0 0.0 225.78477690288713 100.0" fill="none" stroke="none" stroke-linecap="square" stroke-miterlimit="10" xmlns:xlink="http://www.w3.org/1999/xlink" xmlns="http://www.w3.org/2000/svg"><clipPath id="p.0"><path d="m0 0l225.78477 0l0 100.0l-225.78477 0l0 -100.0z" clip-rule="nonzero"/></clipPath><g clip-path="url(#p.0)"><path fill="#000000" fill-opacity="0.0" d="m0 0l225.78477 0l0 100.0l-225.78477 0z" fill-rule="evenodd"/><g filter="url(#shadowFilter-p.1)"><use xlink:href="#p.1" transform="matrix(1.0 0.0 0.0 1.0 -6.251925571071194 6.474058296423885)"/></g><defs><filter id="shadowFilter-p.1" filterUnits="userSpaceOnUse"><feGaussianBlur in="SourceAlpha" stdDeviation="2.0" result="blur"/><feComponentTransfer in="blur" color-interpolation-filters="sRGB"><feFuncR type="linear" slope="0" intercept="0.2627451"/><feFuncG type="linear" slope="0" intercept="0.2627451"/><feFuncB type="linear" slope="0" intercept="0.2627451"/><feFuncA type="linear" slope="0.5" intercept="0"/></feComponentTransfer></filter></defs><g id="p.1"><defs><radialGradient id="p.2" gradientUnits="userSpaceOnUse" gradientTransform="matrix(10.338859673917398 0.0 0.0 10.338859673917398 0.0 0.0)" spreadMethod="pad" cx="10.9830771496771" cy="3.8073008869250375" fx="10.9830771496771" fy="3.8073008869250375" r="10.338859558105469"><stop offset="0.0" stop-color="#6d9eeb"/><stop offset="1.0" stop-color="#113d8a"/></radialGradient></defs><path fill="url(#p.2)" d="m8.828084 25.085077l0 0c0 -3.9428997 3.196351 -7.13925 7.1392508 -7.13925l195.17032 0c1.8934479 0 3.7093506 0.75216866 5.048218 2.0910378c1.3388672 1.3388691 2.091034 3.1547642 2.091034 5.048212l0 28.556147c0 3.9428978 -3.19635 7.139248 -7.1392517 7.139248l-195.17032 0l0 0c-3.9428997 0 -7.1392508 -3.19635 -7.1392508 -7.139248z" fill-rule="evenodd"/><path stroke="#073763" stroke-width="1.0" stroke-linejoin="round" stroke-linecap="butt" d="m8.828084 25.085077l0 0c0 -3.9428997 3.196351 -7.13925 7.1392508 -7.13925l195.17032 0c1.8934479 0 3.7093506 0.75216866 5.048218 2.0910378c1.3388672 1.3388691 2.091034 3.1547642 2.091034 5.048212l0 28.556147c0 3.9428978 -3.19635 7.139248 -7.1392517 7.139248l-195.17032 0l0 0c-3.9428997 0 -7.1392508 -3.19635 -7.1392508 -7.139248z" fill-rule="evenodd"/><path fill="#f3f3f3" d="m62.691093 52.86065q-1.515625 0 -2.78125 -0.28125q-1.25 -0.265625 -2.0625 -0.578125q-0.8125 -0.328125 -0.8125 -0.375l-0.1875 -0.359375q0.046875 -0.21875 0.140625 -1.078125q0.109375 -0.859375 0.203125 -2.25q0.09375 -1.390625 0.09375 -2.9375l1.625 -0.171875q0 2.703125 0.359375 4.0q0.359375 1.296875 1.328125 1.78125q0.96875 0.484375 2.984375 0.484375q2.265625 0 3.625 -1.0625q1.375 -1.0625 1.375 -2.90625q0 -1.078125 -0.734375 -1.9375q-0.734375 -0.859375 -1.75 -1.46875q-1.0 -0.625 -2.984375 -1.671875q-1.875 -0.96875 -3.0625 -1.765625q-1.1875 -0.8125 -2.0 -1.921875q-0.796875 -1.125 -0.796875 -2.609375q0 -1.875 1.09375 -3.390625q1.09375 -1.53125 2.984375 -2.40625q1.890625 -0.890625 4.203125 -0.890625q1.4375 0 2.65625 0.203125q1.21875 0.1875 1.9375 0.40625q0.734375 0.21875 0.90625 0.28125l0.109375 0.21875q-0.03125 0.21875 -0.1875 1.015625q-0.140625 0.78125 -0.328125 2.1875q-0.171875 1.40625 -0.28125 2.890625l-1.40625 0.140625l-0.203125 -0.1875q0.03125 -0.140625 0.0625 -0.65625q0.046875 -0.53125 0.046875 -1.21875q0 -1.90625 -0.9375 -2.625q-0.9375 -0.71875 -3.359375 -0.71875q-1.96875 0 -3.25 1.0q-1.28125 0.984375 -1.28125 2.453125q0 1.4375 1.234375 2.5q1.25 1.0625 3.65625 2.328125q2.34375 1.1875 3.5625 1.96875q1.234375 0.765625 2.171875 1.921875q0.9375 1.15625 0.9375 2.65625q0 2.015625 -1.140625 3.625q-1.125 1.59375 -3.15625 2.5q-2.015625 0.90625 -4.59375 0.90625zm18.611252 0q-2.453125 0 -3.46875 -0.984375q-1.0 -1.0 -1.0 -3.375l0 -8.859375q0 -0.96875 -0.4375 -1.359375q-0.421875 -0.40625 -1.609375 -0.4375l-0.15625 -0.21875l0.1875 -1.078125q1.046875 -0.5 2.03125 -1.234375q0.984375 -0.75 1.609375 -1.296875q0.640625 -0.5625 0.828125 -0.75l0.71875 0.296875q-0.046875 0.171875 -0.125 0.859375q-0.0625 0.6875 -0.171875 1.84375l5.296875 -0.109375l0.109375 0.109375l-0.328125 1.90625l-5.21875 -0.109375q-0.25 3.953125 -0.25 9.0q0 1.828125 0.625 2.59375q0.640625 0.75 2.1875 0.75q0.53125 0 1.0625 -0.140625q0.546875 -0.140625 0.90625 -0.296875q0.359375 -0.171875 0.46875 -0.203125l0.359375 0.921875q-0.203125 0.1875 -0.90625 0.6875q-0.703125 0.5 -1.515625 1.0q-0.8125 0.484375 -1.203125 0.484375zm7.692505 -12.921875q0 -1.953125 -1.328125 -1.953125q-0.25 0 -0.546875 0.0625q-0.28125 0.046875 -0.34375 0.078125l0.140625 -1.328125q1.40625 -0.21875 3.015625 -0.59375q1.625 -0.375 2.125 -0.484375l0.21875 0.4375q-0.359375 0.921875 -0.65625 4.234375q-0.28125 3.3125 -0.28125 6.453125q0 3.53125 2.875 3.53125q1.09375 0 2.015625 -0.515625q0.9375 -0.53125 2.34375 -1.546875l0 -8.34375q0 -1.078125 -0.390625 -1.515625q-0.390625 -0.4375 -1.40625 -0.4375l-0.859375 0.046875l0.140625 -1.296875q1.578125 -0.21875 3.3125 -0.578125q1.734375 -0.359375 2.234375 -0.46875l0.21875 0.4375q-0.328125 0.828125 -0.5625 4.5q-0.234375 3.671875 -0.234375 7.984375q0 0.796875 0.390625 1.234375q0.40625 0.421875 1.078125 0.421875q0.515625 0 1.0 -0.1875q0.484375 -0.203125 0.78125 -0.421875q0.3125 -0.21875 0.390625 -0.296875l0.5 0.578125q-0.140625 0.21875 -0.671875 0.90625q-0.515625 0.6875 -1.21875 1.34375q-0.703125 0.640625 -1.25 0.640625q-2.90625 0 -3.203125 -2.921875l-0.171875 -0.078125q-1.734375 1.34375 -3.125 2.171875q-1.375 0.828125 -1.875 0.828125q-2.3125 0 -3.5625 -1.078125q-1.234375 -1.09375 -1.234375 -3.109375l0.140625 -8.734375zm32.444763 12.921875q-2.8125 0 -3.203125 -2.5625l-0.25 -0.109375q-3.75 2.5625 -4.5 2.5625q-2.0625 0 -3.640625 -0.953125q-1.578125 -0.953125 -2.453125 -2.6875q-0.859375 -1.734375 -0.859375 -3.953125q0 -2.5625 1.203125 -4.71875q1.203125 -2.15625 3.265625 -3.4375q2.078125 -1.28125 4.5 -1.28125q1.140625 0 2.484375 0.140625l0 -5.96875q0 -1.953125 -1.34375 -1.953125q-0.25 0 -0.546875 0.0625q-0.28125 0.046875 -0.34375 0.078125l0.140625 -1.328125q1.546875 -0.21875 3.203125 -0.578125q1.65625 -0.359375 2.125 -0.46875l0.21875 0.46875q-0.40625 0.625 -0.71875 7.609375q-0.296875 6.984375 -0.296875 14.859375q0 0.796875 0.390625 1.234375q0.40625 0.421875 1.09375 0.421875q0.5 0 0.984375 -0.1875q0.484375 -0.203125 0.78125 -0.421875q0.3125 -0.21875 0.390625 -0.296875l0.5 0.578125q-0.109375 0.1875 -0.546875 0.78125q-0.421875 0.59375 -1.125 1.25q-0.703125 0.640625 -1.453125 0.859375zm-7.390625 -2.453125q0.765625 0 1.640625 -0.421875q0.890625 -0.4375 1.5 -0.890625q0.609375 -0.453125 0.796875 -0.59375l0 -9.859375q-0.109375 -0.078125 -0.546875 -0.265625q-0.4375 -0.203125 -1.21875 -0.375q-0.765625 -0.1875 -1.734375 -0.1875q-2.40625 0 -3.796875 1.640625q-1.390625 1.625 -1.390625 4.46875q0 1.796875 0.625 3.28125q0.640625 1.46875 1.734375 2.34375q1.109375 0.859375 2.390625 0.859375zm19.378883 2.453125q-2.234375 0 -3.96875 -0.984375q-1.7187576 -1.0 -2.6562576 -2.8125q-0.9375 -1.828125 -0.9375 -4.171875q0 -2.40625 1.09375 -4.53125q1.0937576 -2.125 2.9218826 -3.375q1.84375 -1.265625 3.9375 -1.265625q2.625 0 3.984375 1.328125q1.3749847 1.328125 1.3749847 3.890625q0 1.046875 -0.203125 1.765625l-0.46873474 0.4375l-9.9375 0q-0.046875 3.484375 1.375 5.375q1.421875 1.890625 3.984375 1.890625q2.015625 0 4.390625 -1.109375l0.21875 0.0625l0.39060974 1.046875q-1.2968597 0.9375 -2.8593597 1.703125q-1.5625 0.75 -2.640625 0.75zm1.796875 -11.375q0.546875 -0.078125 0.71875 -0.25q0.1875 -0.1875 0.1875 -0.734375q0 -1.4375 -0.78125 -2.1875q-0.765625 -0.765625 -2.21875 -0.765625q-1.6875 0 -2.890625 1.15625q-1.203125 1.15625 -1.53125 3.09375l6.515625 -0.3125zm17.237381 9.890625q1.09375 -0.28125 1.546875 -0.84375q0.46875 -0.5625 0.46875 -1.5l0.15625 -7.125q0 -1.796875 -0.78125 -2.765625q-0.765625 -0.96875 -2.21875 -0.96875q-1.140625 0 -2.328125 0.59375q-1.1875 0.59375 -2.09375 1.265625q-0.328125 7.453125 -0.328125 8.859375q0 1.125 0.28125 1.578125q0.296875 0.4375 1.015625 0.4375q0.40625 0 0.765625 -0.03125q0.359375 -0.03125 0.5 -0.03125l0.0625 0.140625l-0.3125 1.546875q-0.328125 -0.03125 -1.265625 -0.078125q-0.9375 -0.03125 -2.015625 -0.03125q-0.9375 0 -2.078125 0.09375q-1.125 0.09375 -1.484375 0.125l0.1875 -1.484375q1.03125 -0.171875 1.46875 -0.640625q0.4375 -0.46875 0.4375 -1.484375l0 -8.78125q0 -1.21875 -0.40625 -1.703125q-0.390625 -0.484375 -1.359375 -0.484375l-0.40625 0l-0.109375 -0.15625l0.109375 -1.1875q1.546875 -0.25 3.078125 -0.578125q1.53125 -0.34375 1.96875 -0.453125l0.21875 0.28125q-0.078125 0.21875 -0.21875 0.921875q-0.140625 0.703125 -0.1875 1.453125l0.078125 0.109375q4.109375 -2.734375 5.296875 -2.734375q2.265625 0 3.59375 1.265625q1.328125 1.25 1.328125 3.375q0 0.359375 -0.203125 3.3125q-0.296875 3.75 -0.296875 5.21875q0 1.046875 0.28125 1.53125q0.296875 0.484375 0.984375 0.484375q0.390625 0 0.75 -0.03125q0.359375 -0.03125 0.5 -0.03125l0.078125 0.140625l-0.28125 1.546875q-0.328125 -0.03125 -1.234375 -0.078125q-0.890625 -0.03125 -1.96875 -0.03125q-0.9375 0 -2.15625 0.171875q-1.203125 0.1875 -1.5625 0.265625l0.140625 -1.484375zm15.384247 1.484375q-2.453125 0 -3.46875 -0.984375q-1.0 -1.0 -1.0 -3.375l0 -8.859375q0 -0.96875 -0.4375 -1.359375q-0.421875 -0.40625 -1.609375 -0.4375l-0.15625 -0.21875l0.1875 -1.078125q1.046875 -0.5 2.03125 -1.234375q0.984375 -0.75 1.609375 -1.296875q0.640625 -0.5625 0.828125 -0.75l0.71875 0.296875q-0.046875 0.171875 -0.125 0.859375q-0.0625 0.6875 -0.171875 1.84375l5.296875 -0.109375l0.109375 0.109375l-0.328125 1.90625l-5.21875 -0.109375q-0.25 3.953125 -0.25 9.0q0 1.828125 0.625 2.59375q0.640625 0.75 2.1875 0.75q0.53125 0 1.0625 -0.140625q0.546875 -0.140625 0.90625 -0.296875q0.359375 -0.171875 0.46875 -0.203125l0.359375 0.921875q-0.203125 0.1875 -0.90625 0.6875q-0.703125 0.5 -1.515625 1.0q-0.8125 0.484375 -1.203125 0.484375z" fill-rule="nonzero"/></g></g></svg>